<svg width="500" height="98" viewBox="0 0 500 98" fill="none" xmlns="http://www.w3.org/2000/svg">
<path d="M52.5876 17.569C59.6876 21.169 62.4876 29.869 58.8876 37.069L39.3876 68.969C35.7876 76.069 27.0876 78.869 19.8876 75.269C12.6876 71.669 9.98764 62.969 13.5876 55.769L33.0876 23.869C36.7876 16.769 45.4876 13.969 52.5876 17.569Z" fill="#172DA0"/>
<path d="M65.4876 48.269C57.4876 48.269 50.9876 54.769 50.9876 62.769V62.369C50.9876 70.369 57.4876 76.869 65.4876 76.869C73.4876 76.869 79.9876 70.369 79.9876 62.369V62.769C79.8876 54.769 73.3876 48.269 65.4876 48.269Z" fill="#172DA0"/>
<path d="M46.0876 16.0693C38.0876 16.0693 31.5876 22.5693 31.5876 30.5693V30.1693C31.5876 38.1693 38.0876 44.6693 46.0876 44.6693C54.0876 44.6693 60.5876 38.1693 60.5876 30.1693V30.5693C60.4876 22.4693 53.9876 16.0693 46.0876 16.0693Z" fill="#0C1A5C"/>
<path d="M130.82 66.02H114.14L111.38 74H102.56L117.62 32.06H127.4L142.46 74H133.58L130.82 66.02ZM128.54 59.3L122.48 41.78L116.42 59.3H128.54ZM146.049 53C146.049 48.88 146.969 45.2 148.809 41.96C150.689 38.68 153.229 36.14 156.429 34.34C159.669 32.5 163.289 31.58 167.289 31.58C171.969 31.58 176.069 32.78 179.589 35.18C183.109 37.58 185.569 40.9 186.969 45.14H177.309C176.349 43.14 174.989 41.64 173.229 40.64C171.509 39.64 169.509 39.14 167.229 39.14C164.789 39.14 162.609 39.72 160.689 40.88C158.809 42 157.329 43.6 156.249 45.68C155.209 47.76 154.689 50.2 154.689 53C154.689 55.76 155.209 58.2 156.249 60.32C157.329 62.4 158.809 64.02 160.689 65.18C162.609 66.3 164.789 66.86 167.229 66.86C169.509 66.86 171.509 66.36 173.229 65.36C174.989 64.32 176.349 62.8 177.309 60.8H186.969C185.569 65.08 183.109 68.42 179.589 70.82C176.109 73.18 172.009 74.36 167.289 74.36C163.289 74.36 159.669 73.46 156.429 71.66C153.229 69.82 150.689 67.28 148.809 64.04C146.969 60.8 146.049 57.12 146.049 53ZM239.804 32.12V74H231.404V46.76L220.184 74H213.824L202.544 46.76V74H194.144V32.12H203.684L217.004 63.26L230.324 32.12H239.804ZM256.509 38.9V49.4H270.609V56.06H256.509V67.16H272.409V74H248.109V32.06H272.409V38.9H256.509ZM329.079 32.12V74H320.679V56.18H302.739V74H294.339V32.12H302.739V49.34H320.679V32.12H329.079ZM368.247 56.66C368.247 57.86 368.167 58.94 368.007 59.9H343.707C343.907 62.3 344.747 64.18 346.227 65.54C347.707 66.9 349.527 67.58 351.687 67.58C354.807 67.58 357.027 66.24 358.347 63.56H367.407C366.447 66.76 364.607 69.4 361.887 71.48C359.167 73.52 355.827 74.54 351.867 74.54C348.667 74.54 345.787 73.84 343.227 72.44C340.707 71 338.727 68.98 337.287 66.38C335.887 63.78 335.187 60.78 335.187 57.38C335.187 53.94 335.887 50.92 337.287 48.32C338.687 45.72 340.647 43.72 343.167 42.32C345.687 40.92 348.587 40.22 351.867 40.22C355.027 40.22 357.847 40.9 360.327 42.26C362.847 43.62 364.787 45.56 366.147 48.08C367.547 50.56 368.247 53.42 368.247 56.66ZM359.547 54.26C359.507 52.1 358.727 50.38 357.207 49.1C355.687 47.78 353.827 47.12 351.627 47.12C349.547 47.12 347.787 47.76 346.347 49.04C344.947 50.28 344.087 52.02 343.767 54.26H359.547ZM372.218 57.26C372.218 53.9 372.878 50.92 374.198 48.32C375.558 45.72 377.378 43.72 379.658 42.32C381.978 40.92 384.558 40.22 387.398 40.22C389.878 40.22 392.038 40.72 393.878 41.72C395.758 42.72 397.258 43.98 398.378 45.5V40.76H406.838V74H398.378V69.14C397.298 70.7 395.798 72 393.878 73.04C391.998 74.04 389.818 74.54 387.338 74.54C384.538 74.54 381.978 73.82 379.658 72.38C377.378 70.94 375.558 68.92 374.198 66.32C372.878 63.68 372.218 60.66 372.218 57.26ZM398.378 57.38C398.378 55.34 397.978 53.6 397.178 52.16C396.378 50.68 395.298 49.56 393.938 48.8C392.578 48 391.118 47.6 389.558 47.6C387.998 47.6 386.558 47.98 385.238 48.74C383.918 49.5 382.838 50.62 381.998 52.1C381.198 53.54 380.798 55.26 380.798 57.26C380.798 59.26 381.198 61.02 381.998 62.54C382.838 64.02 383.918 65.16 385.238 65.96C386.598 66.76 388.038 67.16 389.558 67.16C391.118 67.16 392.578 66.78 393.938 66.02C395.298 65.22 396.378 64.1 397.178 62.66C397.978 61.18 398.378 59.42 398.378 57.38ZM423.442 29.6V74H415.042V29.6H423.442ZM441.522 47.66V63.74C441.522 64.86 441.782 65.68 442.302 66.2C442.862 66.68 443.782 66.92 445.062 66.92H448.962V74H443.682C436.602 74 433.062 70.56 433.062 63.68V47.66H429.102V40.76H433.062V32.54H441.522V40.76H448.962V47.66H441.522ZM473.723 40.28C476.243 40.28 478.483 40.84 480.443 41.96C482.403 43.04 483.923 44.66 485.003 46.82C486.123 48.94 486.683 51.5 486.683 54.5V74H478.283V55.64C478.283 53 477.623 50.98 476.303 49.58C474.983 48.14 473.183 47.42 470.903 47.42C468.583 47.42 466.743 48.14 465.383 49.58C464.063 50.98 463.403 53 463.403 55.64V74H455.003V29.6H463.403V44.9C464.483 43.46 465.923 42.34 467.723 41.54C469.523 40.7 471.523 40.28 473.723 40.28Z" fill="#172DA0"/>
</svg>
