<svg width="145" height="128" viewBox="0 0 145 128" fill="none" xmlns="http://www.w3.org/2000/svg">
<g clip-path="url(#clip0_793_249468)">
<path d="M158.466 112.299H-13.0342V112.385H158.466V112.299Z" fill="#E3E7F4"/>
<path d="M141.282 117.817H129.922V117.903H141.282V117.817Z" fill="#E3E7F4"/>
<path d="M100.575 118.75H97.594V118.836H100.575V118.75Z" fill="#E3E7F4"/>
<path d="M129.579 114.635H122.997V114.72H129.579V114.635Z" fill="#E3E7F4"/>
<path d="M19.7737 115.211H4.95947V115.296H19.7737V115.211Z" fill="#E3E7F4"/>
<path d="M25.0015 115.211H22.8303V115.296H25.0015V115.211Z" fill="#E3E7F4"/>
<path d="M64.1928 116.658H32.0605V116.744H64.1928V116.658Z" fill="#E3E7F4"/>
<path d="M68.257 97.0009H2.02712C1.50828 97 1.011 96.7933 0.644449 96.4261C0.277895 96.0589 0.0720207 95.5612 0.0720215 95.0424V1.94187C0.0765381 1.42601 0.284405 0.932755 0.650472 0.569257C1.01654 0.20576 1.51124 0.00137198 2.02712 0.000488281H68.257C68.7765 0.000488281 69.2746 0.206833 69.6419 0.574129C70.0092 0.941425 70.2156 1.43958 70.2156 1.95902V95.0424C70.2156 95.5618 70.0092 96.06 69.6419 96.4273C69.2746 96.7946 68.7765 97.0009 68.257 97.0009ZM2.02712 0.0690886C1.53102 0.0699972 1.05556 0.267708 0.705084 0.618824C0.354611 0.96994 0.157771 1.44577 0.157772 1.94187V95.0424C0.157771 95.5385 0.354611 96.0143 0.705084 96.3654C1.05556 96.7166 1.53102 96.9143 2.02712 96.9152H68.257C68.7534 96.9143 69.2293 96.7167 69.5803 96.3656C69.9313 96.0146 70.1289 95.5388 70.1298 95.0424V1.94187C70.1289 1.44546 69.9313 0.969633 69.5803 0.618614C69.2293 0.267596 68.7534 0.0699953 68.257 0.0690886H2.02712Z" fill="#E3E7F4"/>
<path d="M142.451 97.0009H76.218C75.6989 97 75.2013 96.7934 74.8342 96.4263C74.4671 96.0592 74.2604 95.5616 74.2595 95.0424V1.94187C74.2649 1.42569 74.4736 0.932446 74.8402 0.569043C75.2068 0.20564 75.7018 0.00136235 76.218 0.000488281H142.451C142.967 0.00227342 143.46 0.20706 143.826 0.570461C144.191 0.933863 144.399 1.4266 144.403 1.94187V95.0424C144.403 95.5606 144.198 96.0578 143.832 96.4249C143.466 96.792 142.97 96.9991 142.451 97.0009ZM76.218 0.0690886C75.7216 0.0699953 75.2458 0.267596 74.8948 0.618614C74.5438 0.969633 74.3462 1.44546 74.3453 1.94187V95.0424C74.3462 95.5388 74.5438 96.0146 74.8948 96.3656C75.2458 96.7167 75.7216 96.9143 76.218 96.9152H142.451C142.948 96.9143 143.424 96.7167 143.775 96.3656C144.126 96.0146 144.323 95.5388 144.324 95.0424V1.94187C144.323 1.44546 144.126 0.969633 143.775 0.618614C143.424 0.267596 142.948 0.0699953 142.451 0.0690886H76.218Z" fill="#E3E7F4"/>
<path d="M92.0063 65.6985H141.1V14.9688L92.0063 14.9688V65.6985Z" fill="#E3E7F4"/>
<path d="M90.2914 65.6985H139.385V14.9688L90.2914 14.9688V65.6985Z" fill="#F0F0F0"/>
<path d="M138.147 16.1731H91.5918V64.519H138.147V16.1731Z" fill="#D0D6EA"/>
<path d="M138.147 16.1731H92.7544V64.519H138.147V16.1731Z" fill="#F5F5F5"/>
<path d="M114.977 64.5222H115.9V16.1763H114.977V64.5222Z" fill="#E3E7F4"/>
<path d="M121.209 16.1731L134.147 64.519H135.389L122.451 16.1731H121.209Z" fill="white"/>
<path d="M114.586 65.4446H115.375V15.4249H114.586V65.4446Z" fill="#F0F0F0"/>
<path d="M125.906 16.1731L138.147 61.9259V36.7771L132.635 16.1731H125.906Z" fill="white"/>
<path d="M92.7544 20.5599V25.2007L103.278 64.5188H104.519L92.7544 20.5599Z" fill="white"/>
<path d="M92.7544 29.9309V55.0797L95.2789 64.519H102.009L92.7544 29.9309Z" fill="white"/>
<path d="M133.046 70.223H95.8444C95.0411 70.223 94.2708 70.5421 93.7028 71.1101C93.1348 71.6781 92.8157 72.4485 92.8157 73.2517L88.6997 99.4775H131.959L136.075 73.2517C136.075 72.4485 135.756 71.6781 135.188 71.1101C134.62 70.5421 133.849 70.223 133.046 70.223Z" fill="#E3E7F4"/>
<path d="M88.8065 80.3653L88.8545 80.2281H74.4485V112.127H92.2845V84.0526C92.2979 83.1064 91.9423 82.1923 91.293 81.5039C90.6437 80.8156 89.7518 80.4072 88.8065 80.3653Z" fill="#D0D6EA"/>
<path d="M74.2972 80.3551C73.3165 80.3551 72.376 80.7447 71.6826 81.4381C70.9892 82.1315 70.5996 83.072 70.5996 84.0526V112.127H77.9913V84.0526C77.9913 83.0726 77.6022 82.1326 76.9095 81.4393C76.2168 80.746 75.2772 80.356 74.2972 80.3551Z" fill="#F0F0F0"/>
<path d="M130.309 80.3653L130.357 80.2281H115.951V112.127H133.787V84.0526C133.801 83.1064 133.445 82.1923 132.796 81.5039C132.147 80.8156 131.255 80.4072 130.309 80.3653Z" fill="#D0D6EA"/>
<path d="M112.103 89.6608H80.406V112.127H112.103V89.6608Z" fill="#D0D6EA"/>
<path d="M82.471 87.3593H118.143V95.1488H82.471C81.9581 95.1488 81.4503 95.0476 80.9767 94.8509C80.503 94.6542 80.0729 94.366 79.7109 94.0027C79.3489 93.6394 79.0622 93.2082 78.8671 92.7339C78.6721 92.2596 78.5727 91.7514 78.5745 91.2386C78.579 90.2081 78.9916 89.2215 79.7218 88.4944C80.452 87.7674 81.4405 87.3592 82.471 87.3593Z" fill="#F5F5F5"/>
<path d="M115.8 80.3551C114.819 80.3551 113.879 80.7447 113.186 81.4381C112.492 82.1315 112.103 83.072 112.103 84.0526V112.127H119.494V84.0526C119.494 83.0726 119.105 82.1326 118.412 81.4393C117.72 80.746 116.78 80.356 115.8 80.3551Z" fill="#F0F0F0"/>
<path d="M125.898 99.8651H131.959L136.075 73.2517C136.075 72.8537 135.997 72.4596 135.844 72.0919C135.692 71.7242 135.468 71.3902 135.187 71.1089C134.905 70.8276 134.571 70.6046 134.203 70.4526C133.835 70.3006 133.441 70.2226 133.043 70.223C132.24 70.223 131.469 70.5421 130.901 71.1101C130.333 71.6781 130.014 72.4485 130.014 73.2517L125.898 99.8651Z" fill="#D0D6EA"/>
<path d="M12.9725 99.5701C12.9725 99.4329 12.5129 85.9598 10.3211 83.8298C8.19112 81.7718 5.7421 83.7509 5.6392 83.8298L5.41968 83.5691C5.44712 83.5451 8.20827 81.2916 10.5647 83.5691C12.8525 85.7952 13.3087 98.9835 13.3087 99.546L12.9725 99.5701Z" fill="#D0D6EA"/>
<path d="M13.1615 102.214C13.1615 102.053 11.666 86.0386 17.5141 79.326L17.7714 79.5524C12.0193 86.1518 13.4873 102.019 13.5045 102.19L13.1615 102.214Z" fill="#D0D6EA"/>
<path d="M12.9449 100.523L12.6019 100.499C12.6019 100.318 13.7475 82.2965 9.45654 78.3485L9.68978 78.0981C14.1008 82.1524 12.9963 99.7758 12.9449 100.523Z" fill="#D0D6EA"/>
<path d="M13.5036 100.499H13.1606C13.1606 100.002 13.3013 88.3261 16.6181 86.4362C16.9329 86.2315 17.2924 86.1057 17.6661 86.0693C18.0398 86.0328 18.4168 86.0869 18.7653 86.2269C20.7718 87.0536 21.7665 90.6242 21.8077 90.7751L21.4647 90.8677C21.4647 90.83 20.4734 87.3074 18.6246 86.5425C18.3242 86.4248 18.0001 86.3806 17.6791 86.4134C17.3582 86.4462 17.0497 86.5551 16.7793 86.7311C13.6408 88.5353 13.5036 100.393 13.5036 100.499Z" fill="#D0D6EA"/>
<path d="M12.211 100.52L11.868 100.503C11.868 100.41 12.3653 91.2729 9.90257 88.0555C9.30232 87.2735 8.65405 86.9031 7.97148 86.9511C6.35595 87.0643 5.0011 89.4275 4.98738 89.4516L4.68896 89.2835C4.74727 89.1806 6.14672 86.735 7.94404 86.6081C8.75009 86.5532 9.50126 86.9682 10.1735 87.8463C12.7186 91.1665 12.235 100.157 12.211 100.52Z" fill="#D0D6EA"/>
<path d="M12.753 101.765C12.6844 100.877 11.1409 80.0155 13.8575 76.3419L14.1353 76.5443C11.4908 80.1183 13.0789 101.522 13.1063 101.738L12.753 101.765Z" fill="#D0D6EA"/>
<path d="M19.5064 88.3401C19.5064 88.3401 17.8738 88.9404 18.3574 90.3604C18.841 91.7804 24.01 94.1162 24.01 94.1162C24.01 94.1162 26.1675 92.1371 24.185 88.9164C22.2024 85.6956 19.551 87.3248 19.5064 88.3401Z" fill="#E3E7F4"/>
<path d="M12.4167 85.6373C12.4167 85.6373 14.1523 85.5653 14.2518 87.0608C14.3513 88.5562 10.4788 92.6997 10.4788 92.6997C10.4788 92.6997 7.73479 91.7015 8.31789 87.9697C8.90099 84.2379 11.9846 84.7215 12.4167 85.6373Z" fill="#E3E7F4"/>
<path d="M10.945 78.4754C10.945 78.4754 12.1043 78.3519 12.0117 77.6453C11.9191 76.9387 7.51156 75.1174 4.91162 78.0603C4.91162 78.0603 6.57517 80.9209 8.98303 80.9587C11.3909 80.9964 10.945 78.4754 10.945 78.4754Z" fill="#E3E7F4"/>
<path d="M13.1027 76.7643C13.1027 76.7643 12.0737 77.2719 11.7616 76.6236C11.4494 75.9754 14.2483 72.1063 18.0076 73.2211C18.0076 73.2211 18.1071 76.5276 16.0834 77.831C14.0597 79.1344 13.1027 76.7643 13.1027 76.7643Z" fill="#E3E7F4"/>
<path d="M7.62178 87.7708C7.62178 87.7708 8.42097 87.126 7.56004 86.8104C6.69911 86.4949 2.46649 86.584 2.41504 90.7755C2.41504 90.7755 7.34395 91.5953 7.95449 89.9969C8.56503 88.3985 7.62178 87.7708 7.62178 87.7708Z" fill="#E3E7F4"/>
<path d="M17.6714 78.3726C17.6714 78.3726 16.8722 77.7244 17.7332 77.4123C18.5941 77.1001 22.8267 77.1859 22.8782 81.3773C22.8782 81.3773 17.9493 82.1937 17.3387 80.5987C16.7282 79.0038 17.6714 78.3726 17.6714 78.3726Z" fill="#E3E7F4"/>
<path d="M15.0649 81.7476C15.0649 81.7476 14.9963 80.9622 15.6275 81.2709C16.2586 81.5796 18.4675 83.9566 16.1797 86.2135C16.1797 86.2135 13.0927 83.936 13.6586 82.7492C14.2246 81.5624 15.0649 81.7476 15.0649 81.7476Z" fill="#E3E7F4"/>
<path d="M6.90826 82.8625C6.90826 82.8625 7.38846 82.2383 6.68874 82.1594C5.98902 82.0805 2.854 82.9209 3.60174 86.049C3.60174 86.049 7.41933 85.7609 7.58397 84.4609C7.74861 83.161 6.90826 82.8625 6.90826 82.8625Z" fill="#E3E7F4"/>
<path d="M19.8085 112.127H6.7093L5.29614 97.7831H21.2251L19.8085 112.127Z" fill="#F0F0F0"/>
<path d="M21.9248 96.2018H4.59644V99.3677H21.9248V96.2018Z" fill="#E6E6E6"/>
<path d="M72.7157 127.788C109.445 127.788 139.22 126.05 139.22 123.906C139.22 121.761 109.445 120.023 72.7157 120.023C35.9864 120.023 6.21143 121.761 6.21143 123.906C6.21143 126.05 35.9864 127.788 72.7157 127.788Z" fill="#F5F5F5"/>
<path d="M75.2746 5.65286V104.437C75.2751 104.628 75.2374 104.818 75.1637 104.995C75.09 105.172 74.9818 105.332 74.8455 105.466C74.7091 105.601 74.5473 105.707 74.3695 105.778C74.1917 105.849 74.0015 105.884 73.81 105.881H27.848C27.5051 105.885 27.1746 105.753 26.9288 105.514C26.8031 105.389 26.7037 105.239 26.6365 105.075C26.5694 104.911 26.5358 104.734 26.5377 104.557V5.53281C26.5318 5.37964 26.5561 5.22679 26.6092 5.08301C26.6624 4.93923 26.7434 4.80734 26.8475 4.69488C26.9517 4.58243 27.077 4.49161 27.2163 4.42763C27.3556 4.36365 27.5062 4.32777 27.6594 4.32202H40.7139C40.8965 4.32486 41.0741 4.38223 41.2238 4.48674C41.3736 4.59125 41.4887 4.73815 41.5543 4.90855L42.0962 6.23939C42.1628 6.40889 42.2782 6.5548 42.4278 6.65862C42.5774 6.76243 42.7545 6.81947 42.9366 6.82249H58.9101C59.0913 6.82166 59.2681 6.76668 59.4179 6.66462C59.5676 6.56255 59.6834 6.41805 59.7505 6.24968L60.2924 4.91198C60.3579 4.7412 60.4728 4.59383 60.6225 4.48874C60.7722 4.38364 60.9499 4.32559 61.1327 4.32202H73.9987C74.3435 4.3319 74.6706 4.47701 74.9093 4.72601C75.1481 4.97502 75.2793 5.30793 75.2746 5.65286Z" fill="#3958C3"/>
<path opacity="0.6" d="M75.275 12.2108H26.5347V95.1482H75.275V12.2108Z" fill="white"/>
<path opacity="0.6" d="M32.5955 8.30103H33.2747V7.39551H32.5955V8.30103Z" fill="white"/>
<path opacity="0.6" d="M31.491 8.30103H32.1702V7.09367H31.491V8.30103Z" fill="white"/>
<path opacity="0.6" d="M30.3799 8.30103H31.0591V6.79183H30.3799V8.30103Z" fill="white"/>
<path opacity="0.6" d="M29.275 8.30103H29.9541V6.48999H29.275V8.30103Z" fill="white"/>
<path opacity="0.6" d="M69.0527 7.06604H68.6514V7.97156H69.0527V7.06604Z" fill="white"/>
<path opacity="0.6" d="M69.3269 8.30103H72.5339V6.73351H69.3269V8.30103Z" fill="white"/>
<g opacity="0.1">
<path d="M48.4629 6.82261L34.4308 59.3805L34.2764 59.9705L34.0226 60.9172L33.8614 61.5071L26.5349 88.9471V55.7447L40.2549 4.32214H40.7008C40.8834 4.32499 41.061 4.38235 41.2107 4.48686C41.3605 4.59138 41.4755 4.73827 41.5412 4.90867L42.0831 6.23952C42.1497 6.40902 42.2651 6.55492 42.4147 6.65874C42.5643 6.76255 42.7414 6.81959 42.9235 6.82261H48.4629Z" fill="white"/>
<path d="M75.2749 33.6621V66.8782L66.525 99.6588L66.3123 100.455L64.8683 105.864H56.0017L57.4457 100.458L57.6755 99.5902L58.8349 95.2478L59.0681 94.38L59.5312 92.641L59.7644 91.7732L60.2275 90.0342L60.4573 89.1664L67.7529 61.843V61.8396L68.089 60.5808V60.5773L75.2749 33.6621Z" fill="white"/>
<path d="M53.2684 6.82263L39.3255 59.0513L39.2397 59.3634L38.4783 62.2274L38.3925 62.5396L26.926 105.497C26.8003 105.372 26.7009 105.222 26.6338 105.058C26.5666 104.894 26.533 104.717 26.535 104.54V99.4875L36.3997 62.5396L36.4854 62.2274L37.2469 59.3634L37.3326 59.0513L51.2756 6.82263H53.2684Z" fill="white"/>
</g>
<path opacity="0.9" d="M72.1984 19.2561V18.7382L71.9309 18.7142C71.8946 18.5443 71.8271 18.3827 71.7319 18.2374L71.9034 18.0316L71.5364 17.6646L71.3306 17.8361C71.1869 17.7381 71.0247 17.6704 70.8539 17.6372L70.8298 17.3696H70.3153L70.2913 17.6372C70.1205 17.6704 69.9583 17.7381 69.8146 17.8361L69.6053 17.6646L69.2418 18.0316L69.4133 18.2374C69.3152 18.3812 69.2475 18.5434 69.2143 18.7142L68.9468 18.7382V19.2561L69.2143 19.2801C69.2475 19.4509 69.3152 19.6132 69.4133 19.7569L69.2418 19.9627L69.6053 20.3297L69.8146 20.1582C69.9583 20.2563 70.1205 20.324 70.2913 20.3572L70.3153 20.6247H70.8333L70.8573 20.3572C71.0281 20.324 71.1903 20.2563 71.3341 20.1582L71.5399 20.3297L71.9069 19.9627L71.7354 19.7569C71.8306 19.6116 71.898 19.45 71.9343 19.2801L72.1984 19.2561ZM70.5692 19.6952C70.4335 19.6952 70.3009 19.6549 70.188 19.5796C70.0752 19.5042 69.9873 19.397 69.9354 19.2717C69.8835 19.1463 69.8699 19.0084 69.8964 18.8753C69.9228 18.7423 69.9882 18.62 70.0841 18.5241C70.18 18.4282 70.3023 18.3628 70.4353 18.3364C70.5684 18.3099 70.7063 18.3235 70.8317 18.3754C70.957 18.4273 71.0642 18.5152 71.1396 18.628C71.2149 18.7409 71.2552 18.8735 71.2552 19.0092C71.2552 19.1911 71.1829 19.3656 71.0542 19.4942C70.9256 19.6229 70.7511 19.6952 70.5692 19.6952Z" fill="white"/>
<path d="M34.1149 18.9302L32.3656 17.4862C32.3528 17.4762 32.3371 17.4707 32.321 17.4707C32.3048 17.4707 32.2891 17.4762 32.2764 17.4862L30.5271 18.9302C30.5153 18.939 30.5066 18.9514 30.5024 18.9655C30.4982 18.9795 30.4986 18.9946 30.5036 19.0085C30.5086 19.0223 30.5179 19.0342 30.5302 19.0423C30.5424 19.0505 30.557 19.0544 30.5717 19.0537H30.9627C30.9812 19.0537 30.999 19.0608 31.0124 19.0735C31.0259 19.0863 31.0338 19.1038 31.0347 19.1223V20.4531C31.0347 20.4716 31.0418 20.4895 31.0546 20.5029C31.0674 20.5163 31.0848 20.5243 31.1033 20.5251H33.5352C33.5537 20.5243 33.5711 20.5163 33.5839 20.5029C33.5967 20.4895 33.6038 20.4716 33.6038 20.4531V19.1223C33.6038 19.113 33.6057 19.1038 33.6093 19.0952C33.613 19.0867 33.6183 19.0789 33.6251 19.0725C33.6318 19.0661 33.6398 19.0611 33.6485 19.0579C33.6572 19.0546 33.6665 19.0532 33.6758 19.0537H34.0668C34.0818 19.0553 34.097 19.0519 34.1099 19.0441C34.1228 19.0363 34.1327 19.0244 34.1382 19.0103C34.1436 18.9963 34.1443 18.9808 34.1401 18.9663C34.1359 18.9518 34.127 18.9391 34.1149 18.9302Z" fill="white"/>
<g opacity="0.6">
<path d="M69.6601 98.544H72.3321C72.3833 98.5431 72.4322 98.5221 72.4681 98.4856C72.504 98.449 72.5242 98.3998 72.5242 98.3485C72.5242 98.2976 72.5039 98.2487 72.4679 98.2127C72.4319 98.1767 72.383 98.1564 72.3321 98.1564H69.6601C69.6092 98.1564 69.5603 98.1767 69.5243 98.2127C69.4883 98.2487 69.468 98.2976 69.468 98.3485C69.468 98.3998 69.4881 98.449 69.5241 98.4856C69.56 98.5221 69.6088 98.5431 69.6601 98.544Z" fill="white"/>
<path d="M72.3321 99.1273H69.6601C69.6092 99.1273 69.5603 99.1475 69.5243 99.1835C69.4883 99.2195 69.468 99.2684 69.468 99.3193C69.468 99.3706 69.4881 99.4198 69.5241 99.4564C69.56 99.493 69.6088 99.514 69.6601 99.5149H72.3321C72.3833 99.514 72.4322 99.493 72.4681 99.4564C72.504 99.4198 72.5242 99.3706 72.5242 99.3193C72.5242 99.2684 72.5039 99.2195 72.4679 99.1835C72.4319 99.1475 72.383 99.1273 72.3321 99.1273Z" fill="white"/>
<path d="M72.3321 100.112H69.6601C69.6092 100.112 69.5603 100.132 69.5243 100.168C69.4883 100.204 69.468 100.253 69.468 100.304C69.468 100.355 69.4883 100.404 69.5243 100.44C69.5603 100.476 69.6092 100.496 69.6601 100.496H72.3321C72.383 100.496 72.4319 100.476 72.4679 100.44C72.5039 100.404 72.5242 100.355 72.5242 100.304C72.5242 100.253 72.5039 100.204 72.4679 100.168C72.4319 100.132 72.383 100.112 72.3321 100.112Z" fill="white"/>
<path d="M52.1087 99.1273H50.9665V97.9851C50.9602 97.9381 50.9371 97.8951 50.9015 97.8638C50.8658 97.8326 50.8201 97.8154 50.7727 97.8154C50.7253 97.8154 50.6795 97.8326 50.6439 97.8638C50.6083 97.8951 50.5852 97.9381 50.5789 97.9851V99.1273H49.4367C49.3858 99.1273 49.3369 99.1475 49.3009 99.1836C49.2649 99.2196 49.2446 99.2684 49.2446 99.3194C49.2446 99.3706 49.2647 99.4199 49.3007 99.4564C49.3366 99.493 49.3855 99.514 49.4367 99.5149H50.5789V100.657C50.5852 100.704 50.6083 100.747 50.6439 100.778C50.6795 100.81 50.7253 100.827 50.7727 100.827C50.8201 100.827 50.8658 100.81 50.9015 100.778C50.9371 100.747 50.9602 100.704 50.9665 100.657V99.5149H52.1087C52.1599 99.514 52.2088 99.493 52.2447 99.4564C52.2806 99.4199 52.3008 99.3706 52.3008 99.3194C52.3008 99.2684 52.2805 99.2196 52.2445 99.1836C52.2085 99.1475 52.1596 99.1273 52.1087 99.1273Z" fill="white"/>
<path d="M31.618 98.0638H29.4982C29.4467 98.0647 29.3974 98.0855 29.361 98.122C29.3245 98.1585 29.3036 98.2077 29.3027 98.2593V100.396C29.3036 100.447 29.3246 100.496 29.3612 100.532C29.3978 100.568 29.447 100.588 29.4982 100.588H31.6351C31.6861 100.588 31.7349 100.568 31.771 100.532C31.807 100.496 31.8272 100.447 31.8272 100.396V98.2593C31.8273 98.2324 31.8218 98.2058 31.8111 98.1812C31.8005 98.1565 31.7848 98.1343 31.7652 98.116C31.7456 98.0976 31.7224 98.0835 31.697 98.0745C31.6717 98.0655 31.6448 98.0619 31.618 98.0638ZM31.4225 100.201H29.6732V98.4411H31.4225V100.201Z" fill="white"/>
</g>
<g opacity="0.6">
<path d="M49.3299 92.8435C49.2966 92.8432 49.2642 92.8324 49.2373 92.8126L47.8653 91.9174C47.8431 91.907 47.8233 91.8919 47.8074 91.8733C47.7915 91.8546 47.7797 91.8327 47.773 91.8091C47.7662 91.7855 47.7646 91.7608 47.7683 91.7365C47.7719 91.7122 47.7807 91.689 47.7941 91.6684C47.8075 91.6479 47.8251 91.6304 47.8458 91.6172C47.8666 91.6041 47.8899 91.5955 47.9142 91.5921C47.9385 91.5887 47.9632 91.5906 47.9868 91.5976C48.0103 91.6046 48.032 91.6165 48.0505 91.6327L49.3334 92.4662L50.6162 91.6327C50.6545 91.6077 50.7011 91.5987 50.746 91.6077C50.7909 91.6167 50.8305 91.6429 50.8563 91.6807C50.8808 91.7189 50.8891 91.7653 50.8795 91.8097C50.8698 91.854 50.843 91.8928 50.8048 91.9174L49.4328 92.8126C49.4028 92.8339 49.3667 92.8447 49.3299 92.8435Z" fill="#3958C3"/>
<path d="M49.3305 92.1438C49.2978 92.1432 49.2658 92.1337 49.2379 92.1164L47.8659 91.2212C47.8275 91.1959 47.8006 91.1566 47.791 91.1117C47.7814 91.0667 47.7898 91.0198 47.8145 90.9811C47.8396 90.9435 47.8786 90.9173 47.9229 90.9083C47.9673 90.8993 48.0133 90.9082 48.0511 90.933L49.334 91.7665L50.6168 90.933C50.655 90.908 50.7016 90.8992 50.7463 90.9085C50.791 90.9179 50.8302 90.9446 50.8552 90.9828C50.8802 91.021 50.889 91.0676 50.8797 91.1123C50.8703 91.157 50.8436 91.1961 50.8054 91.2212L49.4334 92.1164C49.4023 92.1349 49.3667 92.1444 49.3305 92.1438Z" fill="#3958C3"/>
</g>
<path opacity="0.1" d="M72.3182 33.662C71.9801 33.6629 71.6561 33.7976 71.417 34.0367C71.1779 34.2758 71.0431 34.5998 71.0422 34.9379V87.8732C71.0422 88.2116 71.1767 88.5361 71.416 88.7754C71.6552 89.0147 71.9798 89.1491 72.3182 89.1491C72.6566 89.1491 72.9812 89.0147 73.2204 88.7754C73.4597 88.5361 73.5942 88.2116 73.5942 87.8732V34.9379C73.5942 34.7704 73.5612 34.6045 73.497 34.4497C73.4329 34.2949 73.3389 34.1542 73.2204 34.0357C73.102 33.9172 72.9613 33.8232 72.8065 33.7591C72.6517 33.695 72.4858 33.662 72.3182 33.662Z" fill="black"/>
<path opacity="0.6" d="M72.3181 34.0189C72.0452 34.0189 71.7834 34.1273 71.5904 34.3203C71.3975 34.5133 71.2891 34.775 71.2891 35.0479V42.1892C71.324 42.4345 71.4463 42.6589 71.6334 42.8213C71.8206 42.9836 72.06 43.073 72.3078 43.073C72.5555 43.073 72.795 42.9836 72.9821 42.8213C73.1693 42.6589 73.2915 42.4345 73.3265 42.1892V35.0376C73.3239 34.77 73.2171 34.514 73.0288 34.3238C72.8406 34.1336 72.5856 34.0243 72.3181 34.0189Z" fill="white"/>
<path opacity="0.3" d="M29.9612 23.722H71.8518C72.0808 23.7216 72.3075 23.7664 72.5191 23.8538C72.7308 23.9412 72.923 24.0695 73.0849 24.2314C73.2468 24.3933 73.3751 24.5855 73.4625 24.7972C73.5499 25.0088 73.5947 25.2355 73.5942 25.4645C73.5947 25.6936 73.55 25.9205 73.4626 26.1323C73.3752 26.3441 73.247 26.5366 73.0851 26.6988C72.9233 26.861 72.731 26.9896 72.5194 27.0774C72.3078 27.1652 72.0809 27.2104 71.8518 27.2104H29.9612C29.7319 27.2104 29.5049 27.1652 29.2931 27.0775C29.0813 26.9897 28.8888 26.8611 28.7267 26.699C28.5646 26.5369 28.436 26.3444 28.3482 26.1326C28.2605 25.9208 28.2153 25.6938 28.2153 25.4645C28.2153 25.2354 28.2605 25.0085 28.3483 24.7969C28.4361 24.5853 28.5647 24.393 28.7269 24.2312C28.8891 24.0693 29.0815 23.9411 29.2933 23.8537C29.5051 23.7663 29.7321 23.7216 29.9612 23.722Z" fill="black"/>
<path d="M71.1898 25.9137C71.0034 25.913 70.8248 25.8391 70.6924 25.7079C70.6264 25.6431 70.5741 25.5657 70.5387 25.4802C70.5033 25.3948 70.4856 25.303 70.4866 25.2105C70.4856 25.118 70.5033 25.0263 70.5387 24.9408C70.5741 24.8554 70.6264 24.7779 70.6924 24.7132C70.7577 24.6478 70.8352 24.596 70.9206 24.5606C71.0059 24.5253 71.0974 24.5071 71.1898 24.5071C71.2821 24.5071 71.3736 24.5253 71.4589 24.5606C71.5443 24.596 71.6218 24.6478 71.6871 24.7132C71.7532 24.7779 71.8055 24.8554 71.8408 24.9408C71.8762 25.0263 71.8939 25.118 71.8929 25.2105C71.8963 25.3059 71.8797 25.4009 71.8443 25.4895C71.8088 25.5781 71.7553 25.6583 71.6871 25.725C71.552 25.85 71.3737 25.9176 71.1898 25.9137ZM71.1898 24.8504C71.1427 24.8492 71.0958 24.8577 71.0521 24.8754C71.0085 24.8931 70.9689 24.9196 70.9359 24.9533C70.9022 24.9871 70.8754 25.0272 70.8572 25.0713C70.8389 25.1155 70.8296 25.1628 70.8296 25.2105C70.8289 25.2579 70.8379 25.3049 70.8562 25.3486C70.8745 25.3923 70.9017 25.4317 70.9359 25.4643C71.0047 25.529 71.0954 25.565 71.1898 25.565C71.2841 25.565 71.3749 25.529 71.4436 25.4643C71.4779 25.4317 71.505 25.3923 71.5233 25.3486C71.5416 25.3049 71.5507 25.2579 71.5499 25.2105C71.55 25.1628 71.5406 25.1155 71.5223 25.0713C71.5041 25.0272 71.4773 24.9871 71.4436 24.9533C71.4106 24.9196 71.3711 24.8931 71.3274 24.8754C71.2837 24.8577 71.2369 24.8492 71.1898 24.8504Z" fill="white"/>
<path d="M72.2326 26.4112C72.1873 26.4105 72.1442 26.392 72.1125 26.3597L71.4265 25.6943C71.3949 25.6617 71.3772 25.618 71.3772 25.5725C71.3772 25.5271 71.3949 25.4834 71.4265 25.4508C71.4425 25.4347 71.4614 25.4219 71.4823 25.4132C71.5032 25.4045 71.5257 25.4 71.5483 25.4C71.5709 25.4 71.5934 25.4045 71.6143 25.4132C71.6352 25.4219 71.6541 25.4347 71.6701 25.4508L72.3389 26.1196C72.3703 26.1517 72.3879 26.1948 72.3879 26.2397C72.3879 26.2845 72.3703 26.3277 72.3389 26.3597C72.3105 26.3887 72.2729 26.4069 72.2326 26.4112Z" fill="white"/>
<path opacity="0.6" d="M69.0118 52.5272H28.9631C28.5501 52.5272 28.2153 52.862 28.2153 53.275V69.492C28.2153 69.905 28.5501 70.2397 28.9631 70.2397H69.0118C69.4247 70.2397 69.7595 69.905 69.7595 69.492V53.275C69.7595 52.862 69.4247 52.5272 69.0118 52.5272Z" fill="#3958C3"/>
<path d="M44.5595 54.2524H30.0403V67.5951H44.5595V54.2524Z" fill="#3958C3"/>
<path opacity="0.6" d="M44.5595 54.2524H30.0403V67.5951H44.5595V54.2524Z" fill="white"/>
<path opacity="0.3" d="M43.8562 54.9556H30.781V66.8542H43.8562V54.9556Z" fill="white"/>
<path opacity="0.3" d="M43.8562 64.3366V66.8542H30.7844L30.781 61.037L33.4804 58.6771L37.4832 62.5805L39.603 61.037L43.8562 64.3366Z" fill="white"/>
<g opacity="0.6">
<path d="M41.6776 58.6739C41.6776 58.8821 41.6158 59.0857 41.5001 59.2589C41.3844 59.432 41.2199 59.567 41.0275 59.6467C40.8351 59.7264 40.6234 59.7473 40.4191 59.7066C40.2149 59.666 40.0272 59.5657 39.88 59.4185C39.7327 59.2712 39.6324 59.0836 39.5918 58.8793C39.5511 58.675 39.572 58.4633 39.6517 58.2709C39.7314 58.0785 39.8664 57.914 40.0395 57.7983C40.2127 57.6826 40.4163 57.6209 40.6245 57.6209C40.763 57.6204 40.9001 57.6473 41.028 57.7001C41.156 57.7528 41.2723 57.8304 41.3701 57.9283C41.468 58.0261 41.5456 58.1424 41.5983 58.2704C41.6511 58.3983 41.678 58.5355 41.6776 58.6739Z" fill="white"/>
<path opacity="0.3" d="M41.6776 58.6739C41.6776 58.8821 41.6158 59.0857 41.5001 59.2589C41.3844 59.432 41.2199 59.567 41.0275 59.6467C40.8351 59.7264 40.6234 59.7473 40.4191 59.7066C40.2149 59.666 40.0272 59.5657 39.88 59.4185C39.7327 59.2712 39.6324 59.0836 39.5918 58.8793C39.5511 58.675 39.572 58.4633 39.6517 58.2709C39.7314 58.0785 39.8664 57.914 40.0395 57.7983C40.2127 57.6826 40.4163 57.6209 40.6245 57.6209C40.763 57.6204 40.9001 57.6473 41.028 57.7001C41.156 57.7528 41.2723 57.8304 41.3701 57.9283C41.468 58.0261 41.5456 58.1424 41.5983 58.2704C41.6511 58.3983 41.678 58.5355 41.6776 58.6739Z" fill="white"/>
</g>
<g opacity="0.3">
<path d="M61.4182 55.3948H47.1837C47.0681 55.3948 46.9573 55.3489 46.8756 55.2672C46.7939 55.1855 46.748 55.0747 46.748 54.9592C46.748 54.9021 46.7593 54.8456 46.7813 54.793C46.8032 54.7403 46.8353 54.6925 46.8758 54.6524C46.9163 54.6122 46.9644 54.5804 47.0172 54.5589C47.0701 54.5374 47.1266 54.5265 47.1837 54.527H61.4182C61.475 54.5265 61.5314 54.5374 61.5841 54.559C61.6367 54.5805 61.6846 54.6123 61.7248 54.6526C61.765 54.6928 61.7968 54.7406 61.8184 54.7932C61.8399 54.8459 61.8508 54.9023 61.8503 54.9592C61.8508 55.0162 61.84 55.0728 61.8184 55.1256C61.7969 55.1784 61.7652 55.2265 61.725 55.267C61.6848 55.3075 61.637 55.3396 61.5843 55.3616C61.5317 55.3835 61.4752 55.3948 61.4182 55.3948Z" fill="white"/>
<path d="M66.978 57.9978H47.1834C47.1264 57.9982 47.0698 57.9874 47.017 57.9659C46.9641 57.9444 46.9161 57.9126 46.8756 57.8724C46.8351 57.8323 46.803 57.7845 46.781 57.7318C46.7591 57.6791 46.7478 57.6227 46.7478 57.5656C46.7478 57.4501 46.7937 57.3393 46.8754 57.2576C46.9571 57.1759 47.0679 57.13 47.1834 57.13H66.978C67.0935 57.13 67.2043 57.1759 67.286 57.2576C67.3677 57.3393 67.4136 57.4501 67.4136 57.5656C67.4136 57.6227 67.4023 57.6791 67.3803 57.7318C67.3584 57.7845 67.3263 57.8323 67.2858 57.8724C67.2453 57.9126 67.1972 57.9444 67.1444 57.9659C67.0916 57.9874 67.035 57.9982 66.978 57.9978Z" fill="white"/>
<path d="M55.1685 60.6049H47.1834C47.0679 60.6049 46.9571 60.559 46.8754 60.4773C46.7937 60.3956 46.7478 60.2848 46.7478 60.1693C46.7478 60.1122 46.7591 60.0557 46.781 60.0031C46.803 59.9504 46.8351 59.9026 46.8756 59.8624C46.9161 59.8223 46.9641 59.7905 47.017 59.769C47.0698 59.7475 47.1264 59.7366 47.1834 59.7371H55.1685C55.2253 59.7366 55.2817 59.7475 55.3344 59.769C55.387 59.7906 55.4348 59.8224 55.4751 59.8626C55.5153 59.9029 55.5471 59.9507 55.5687 60.0033C55.5902 60.056 55.6011 60.1124 55.6006 60.1693C55.6011 60.2263 55.5902 60.2829 55.5687 60.3357C55.5472 60.3885 55.5155 60.4366 55.4753 60.4771C55.4351 60.5176 55.3873 60.5497 55.3346 60.5716C55.282 60.5936 55.2255 60.6049 55.1685 60.6049Z" fill="white"/>
</g>
<path d="M46.919 65.0328C47.3031 64.4085 48.0406 64.6486 48.4179 65.1323C48.7986 64.6452 49.5326 64.4051 49.9202 65.0294C50.5685 66.0824 49.2342 67.0599 48.6031 67.4304L48.4247 67.5401L48.2429 67.4304C47.6118 67.0634 46.2707 66.0892 46.919 65.0328Z" fill="white"/>
<g opacity="0.6">
<path d="M52.8801 65.2013H55.0136L54.9141 67.5543H52.983L52.8801 65.2013Z" fill="white"/>
<path d="M54.3484 64.6456L54.2489 64.4398H53.6486L53.5457 64.6456L52.6882 64.7451V64.9783H55.2093V64.7451L54.3484 64.6456Z" fill="white"/>
</g>
<g opacity="0.6">
<path d="M60.8343 64.5252H60.2855C60.2556 64.5247 60.2265 64.5347 60.2033 64.5535C60.1801 64.5724 60.1642 64.5988 60.1586 64.6281L60.1209 64.8065H57.4729H57.4489H57.4283C57.4283 64.8065 57.4283 64.8065 57.4112 64.8236V64.8442V64.8648C57.4095 64.8739 57.4095 64.8832 57.4112 64.8922L57.6924 66.4803C57.698 66.51 57.7137 66.5368 57.7368 66.5562C57.76 66.5756 57.7891 66.5864 57.8193 66.5867H59.9322C59.9621 66.5872 59.9912 66.5772 60.0144 66.5583C60.0377 66.5395 60.0535 66.5131 60.0591 66.4838L60.3781 64.9265C60.3813 64.9084 60.3813 64.8898 60.3781 64.8717L60.4056 64.7242H60.8515C60.882 64.7192 60.9097 64.7035 60.9297 64.6799C60.9497 64.6564 60.9607 64.6265 60.9607 64.5955C60.9607 64.5646 60.9497 64.5347 60.9297 64.5112C60.9097 64.4876 60.882 64.4719 60.8515 64.4669L60.8343 64.5252ZM59.9597 65.6091H59.404L59.4349 65.0637H60.0694L59.9597 65.6091ZM58.5877 65.6091L58.5637 65.0637H59.181L59.1502 65.6091H58.5877ZM59.1365 65.8664L59.1056 66.3946H58.6254L58.6014 65.8664H59.1365ZM57.665 65.0637H58.3098L58.3338 65.6091H57.7645L57.665 65.0637ZM57.8056 65.8664H58.3441L58.3681 66.3946H57.8982L57.8056 65.8664ZM59.8019 66.3946H59.3628L59.3937 65.8664H59.9082L59.8019 66.3946Z" fill="white"/>
<path d="M57.9084 66.9126C57.8445 66.9119 57.7818 66.9303 57.7283 66.9653C57.6748 67.0003 57.633 67.0504 57.6081 67.1093C57.5831 67.1681 57.5763 67.233 57.5883 67.2958C57.6004 67.3586 57.6308 67.4163 57.6757 67.4618C57.7207 67.5072 57.7781 67.5383 57.8408 67.551C57.9034 67.5637 57.9684 67.5575 58.0275 67.5332C58.0866 67.5089 58.1372 67.4676 58.1728 67.4145C58.2084 67.3614 58.2274 67.299 58.2274 67.235C58.2274 67.1501 58.1939 67.0686 58.1341 67.0083C58.0744 66.9479 57.9933 66.9135 57.9084 66.9126Z" fill="white"/>
<path d="M60.0451 66.9126C59.9812 66.9119 59.9185 66.9303 59.865 66.9653C59.8116 67.0003 59.7697 67.0504 59.7448 67.1093C59.7198 67.1681 59.713 67.233 59.725 67.2958C59.7371 67.3586 59.7675 67.4163 59.8125 67.4618C59.8574 67.5072 59.9148 67.5383 59.9775 67.551C60.0401 67.5637 60.1051 67.5575 60.1642 67.5332C60.2234 67.5089 60.2739 67.4676 60.3095 67.4145C60.3451 67.3614 60.3641 67.299 60.3641 67.235C60.3641 67.1501 60.3306 67.0686 60.2709 67.0083C60.2111 66.9479 60.13 66.9135 60.0451 66.9126Z" fill="white"/>
</g>
<path opacity="0.6" d="M69.0118 71.392H28.9631C28.5501 71.392 28.2153 71.7267 28.2153 72.1397V88.3568C28.2153 88.7697 28.5501 89.1045 28.9631 89.1045H69.0118C69.4247 89.1045 69.7595 88.7697 69.7595 88.3568V72.1397C69.7595 71.7267 69.4247 71.392 69.0118 71.392Z" fill="#3958C3"/>
<path d="M44.5595 73.1173H30.0403V86.46H44.5595V73.1173Z" fill="#3958C3"/>
<path opacity="0.6" d="M44.5595 73.1173H30.0403V86.46H44.5595V73.1173Z" fill="white"/>
<path opacity="0.3" d="M43.8562 73.8208H30.781V85.7195H43.8562V73.8208Z" fill="white"/>
<path opacity="0.3" d="M43.8562 83.2019V85.7195H30.7844L30.781 79.9022L33.4804 77.5424L37.4832 81.4457L39.603 79.9022L43.8562 83.2019Z" fill="white"/>
<g opacity="0.6">
<path d="M41.6776 77.5385C41.6776 77.7468 41.6158 77.9503 41.5001 78.1235C41.3844 78.2967 41.2199 78.4316 41.0275 78.5113C40.8351 78.591 40.6234 78.6119 40.4191 78.5713C40.2149 78.5306 40.0272 78.4303 39.88 78.2831C39.7327 78.1358 39.6324 77.9482 39.5918 77.7439C39.5511 77.5397 39.572 77.3279 39.6517 77.1355C39.7314 76.9431 39.8664 76.7787 40.0395 76.6629C40.2127 76.5472 40.4163 76.4855 40.6245 76.4855C40.763 76.485 40.9001 76.512 41.028 76.5647C41.156 76.6175 41.2723 76.695 41.3701 76.7929C41.468 76.8908 41.5456 77.007 41.5983 77.135C41.6511 77.263 41.678 77.4001 41.6776 77.5385Z" fill="white"/>
<path opacity="0.3" d="M41.6776 77.5385C41.6776 77.7468 41.6158 77.9503 41.5001 78.1235C41.3844 78.2967 41.2199 78.4316 41.0275 78.5113C40.8351 78.591 40.6234 78.6119 40.4191 78.5713C40.2149 78.5306 40.0272 78.4303 39.88 78.2831C39.7327 78.1358 39.6324 77.9482 39.5918 77.7439C39.5511 77.5397 39.572 77.3279 39.6517 77.1355C39.7314 76.9431 39.8664 76.7787 40.0395 76.6629C40.2127 76.5472 40.4163 76.4855 40.6245 76.4855C40.763 76.485 40.9001 76.512 41.028 76.5647C41.156 76.6175 41.2723 76.695 41.3701 76.7929C41.468 76.8908 41.5456 77.007 41.5983 77.135C41.6511 77.263 41.678 77.4001 41.6776 77.5385Z" fill="white"/>
</g>
<g opacity="0.3">
<path d="M61.4179 74.2598H47.1834C47.0679 74.2598 46.9571 74.2139 46.8754 74.1322C46.7937 74.0505 46.7478 73.9397 46.7478 73.8242C46.7478 73.7671 46.7591 73.7106 46.781 73.658C46.803 73.6053 46.8351 73.5575 46.8756 73.5173C46.9161 73.4772 46.9641 73.4454 47.017 73.4239C47.0698 73.4024 47.1264 73.3915 47.1834 73.392H61.4179C61.4748 73.3915 61.5312 73.4024 61.5838 73.4239C61.6365 73.4455 61.6843 73.4773 61.7245 73.5176C61.7648 73.5578 61.7966 73.6056 61.8181 73.6582C61.8397 73.7109 61.8506 73.7673 61.8501 73.8242C61.8506 73.8812 61.8397 73.9378 61.8182 73.9906C61.7967 74.0434 61.7649 74.0915 61.7247 74.132C61.6846 74.1725 61.6368 74.2046 61.5841 74.2265C61.5314 74.2485 61.475 74.2598 61.4179 74.2598Z" fill="white"/>
<path d="M66.978 76.8625H47.1834C47.1264 76.863 47.0698 76.8522 47.017 76.8306C46.9641 76.8091 46.9161 76.7774 46.8756 76.7372C46.8351 76.697 46.803 76.6492 46.781 76.5966C46.7591 76.5439 46.7478 76.4874 46.7478 76.4304C46.7478 76.3148 46.7937 76.204 46.8754 76.1223C46.9571 76.0406 47.0679 75.9948 47.1834 75.9948H66.978C67.0935 75.9948 67.2043 76.0406 67.286 76.1223C67.3677 76.204 67.4136 76.3148 67.4136 76.4304C67.4136 76.4874 67.4023 76.5439 67.3803 76.5966C67.3584 76.6492 67.3263 76.697 67.2858 76.7372C67.2453 76.7774 67.1972 76.8091 67.1444 76.8306C67.0916 76.8522 67.035 76.863 66.978 76.8625Z" fill="white"/>
<path d="M55.1685 79.4696H47.1834C47.0679 79.4696 46.9571 79.4237 46.8754 79.342C46.7937 79.2603 46.7478 79.1495 46.7478 79.034C46.7478 78.977 46.7591 78.9205 46.781 78.8678C46.803 78.8152 46.8351 78.7674 46.8756 78.7272C46.9161 78.687 46.9641 78.6552 47.017 78.6337C47.0698 78.6122 47.1264 78.6014 47.1834 78.6018H55.1685C55.2253 78.6014 55.2817 78.6122 55.3344 78.6338C55.387 78.6553 55.4348 78.6872 55.4751 78.7274C55.5153 78.7676 55.5471 78.8154 55.5687 78.8681C55.5902 78.9207 55.6011 78.9771 55.6006 79.034C55.6011 79.091 55.5902 79.1476 55.5687 79.2004C55.5472 79.2533 55.5155 79.3013 55.4753 79.3418C55.4351 79.3823 55.3873 79.4145 55.3346 79.4364C55.282 79.4583 55.2255 79.4696 55.1685 79.4696Z" fill="white"/>
</g>
<path d="M46.919 83.898C47.3031 83.2738 48.0406 83.5139 48.4179 83.9975C48.7986 83.5105 49.5326 83.2703 49.9202 83.8946C50.5685 84.9476 49.2342 85.9252 48.6031 86.2956L48.4247 86.4054L48.2429 86.2956C47.6118 85.9286 46.2707 84.9545 46.919 83.898Z" fill="white"/>
<g opacity="0.6">
<path d="M52.8804 84.0625H55.0138L54.9144 86.4189H52.9833L52.8804 84.0625Z" fill="white"/>
<path d="M54.3484 83.5101L54.2489 83.3043H53.6486L53.5457 83.5101L52.6882 83.6096V83.8428H55.2093V83.6096L54.3484 83.5101Z" fill="white"/>
</g>
<g opacity="0.6">
<path d="M60.8346 83.3902H60.2858C60.2559 83.3897 60.2268 83.3997 60.2035 83.4185C60.1803 83.4374 60.1645 83.4638 60.1588 83.4931L60.1211 83.6715H57.4732H57.4491H57.4286L57.4114 83.6886V83.7092V83.7298C57.4097 83.7388 57.4097 83.7482 57.4114 83.7572L57.6927 85.3453C57.6982 85.375 57.7139 85.4018 57.7371 85.4212C57.7602 85.4406 57.7894 85.4514 57.8196 85.4516H59.9325C59.9623 85.4522 59.9915 85.4422 60.0147 85.4233C60.0379 85.4045 60.0537 85.3781 60.0594 85.3487L60.3784 83.7915C60.3815 83.7734 60.3815 83.7548 60.3784 83.7366L60.4058 83.5892H60.8517C60.8822 83.5842 60.91 83.5685 60.93 83.5449C60.95 83.5214 60.961 83.4914 60.961 83.4605C60.961 83.4296 60.95 83.3997 60.93 83.3761C60.91 83.3526 60.8822 83.3369 60.8517 83.3319L60.8346 83.3902ZM59.9599 84.4741H59.4042L59.4351 83.9287H60.0697L59.9599 84.4741ZM58.5879 84.4741L58.5639 83.9287H59.1813L59.1504 84.4741H58.5879ZM59.1367 84.7313L59.1058 85.2596H58.6256L58.6016 84.7313H59.1367ZM57.6652 83.9287H58.3101L58.3341 84.4741H57.7647L57.6652 83.9287ZM57.8059 84.7313H58.3444L58.3684 85.2596H57.8985L57.8059 84.7313ZM59.8021 85.2596H59.3631L59.394 84.7313H59.9085L59.8021 85.2596Z" fill="white"/>
<path d="M57.9086 85.7775C57.8447 85.7768 57.782 85.7951 57.7286 85.8301C57.6751 85.8652 57.6332 85.9153 57.6083 85.9741C57.5834 86.033 57.5765 86.0979 57.5885 86.1607C57.6006 86.2234 57.631 86.2812 57.676 86.3267C57.7209 86.3721 57.7784 86.4031 57.841 86.4159C57.9036 86.4286 57.9686 86.4224 58.0278 86.3981C58.0869 86.3738 58.1374 86.3325 58.173 86.2794C58.2086 86.2263 58.2276 86.1638 58.2276 86.0999C58.2276 86.015 58.1941 85.9335 58.1344 85.8731C58.0747 85.8128 57.9935 85.7784 57.9086 85.7775Z" fill="white"/>
<path d="M60.0451 85.7775C59.9812 85.7768 59.9185 85.7951 59.865 85.8301C59.8116 85.8652 59.7697 85.9153 59.7448 85.9741C59.7198 86.033 59.713 86.0979 59.725 86.1607C59.7371 86.2234 59.7675 86.2812 59.8125 86.3267C59.8574 86.3721 59.9148 86.4031 59.9775 86.4159C60.0401 86.4286 60.1051 86.4224 60.1642 86.3981C60.2234 86.3738 60.2739 86.3325 60.3095 86.2794C60.3451 86.2263 60.3641 86.1638 60.3641 86.0999C60.3641 86.015 60.3306 85.9335 60.2709 85.8731C60.2111 85.8128 60.13 85.7784 60.0451 85.7775Z" fill="white"/>
</g>
<path opacity="0.6" d="M69.0118 33.662H28.9631C28.5501 33.662 28.2153 33.9968 28.2153 34.4097V50.6268C28.2153 51.0397 28.5501 51.3745 28.9631 51.3745H69.0118C69.4247 51.3745 69.7595 51.0397 69.7595 50.6268V34.4097C69.7595 33.9968 69.4247 33.662 69.0118 33.662Z" fill="#3958C3"/>
<path d="M44.5595 35.3873H30.0403V48.73H44.5595V35.3873Z" fill="#3958C3"/>
<path opacity="0.6" d="M44.5595 35.3873H30.0403V48.73H44.5595V35.3873Z" fill="white"/>
<path opacity="0.3" d="M43.8562 36.0908H30.781V47.9895H43.8562V36.0908Z" fill="white"/>
<path opacity="0.3" d="M43.8562 45.4719V47.9895H30.7844L30.781 42.1722L33.4804 39.8124L37.4832 43.7157L39.603 42.1722L43.8562 45.4719Z" fill="white"/>
<g opacity="0.6">
<path d="M41.6776 39.8089C41.6776 40.0171 41.6158 40.2207 41.5001 40.3939C41.3844 40.5671 41.2199 40.702 41.0275 40.7817C40.8351 40.8614 40.6234 40.8823 40.4191 40.8417C40.2149 40.801 40.0272 40.7007 39.88 40.5535C39.7327 40.4062 39.6324 40.2186 39.5918 40.0143C39.5511 39.81 39.572 39.5983 39.6517 39.4059C39.7314 39.2135 39.8664 39.049 40.0395 38.9333C40.2127 38.8176 40.4163 38.7559 40.6245 38.7559C40.763 38.7554 40.9001 38.7823 41.028 38.8351C41.156 38.8879 41.2723 38.9654 41.3701 39.0633C41.468 39.1611 41.5456 39.2774 41.5983 39.4054C41.6511 39.5333 41.678 39.6705 41.6776 39.8089Z" fill="white"/>
<path opacity="0.3" d="M41.6776 39.8089C41.6776 40.0171 41.6158 40.2207 41.5001 40.3939C41.3844 40.5671 41.2199 40.702 41.0275 40.7817C40.8351 40.8614 40.6234 40.8823 40.4191 40.8417C40.2149 40.801 40.0272 40.7007 39.88 40.5535C39.7327 40.4062 39.6324 40.2186 39.5918 40.0143C39.5511 39.81 39.572 39.5983 39.6517 39.4059C39.7314 39.2135 39.8664 39.049 40.0395 38.9333C40.2127 38.8176 40.4163 38.7559 40.6245 38.7559C40.763 38.7554 40.9001 38.7823 41.028 38.8351C41.156 38.8879 41.2723 38.9654 41.3701 39.0633C41.468 39.1611 41.5456 39.2774 41.5983 39.4054C41.6511 39.5333 41.678 39.6705 41.6776 39.8089Z" fill="white"/>
</g>
<g opacity="0.3">
<path d="M61.4179 36.5295H47.1834C47.1262 36.5295 47.0696 36.5183 47.0167 36.4964C46.9639 36.4745 46.9158 36.4424 46.8754 36.402C46.8349 36.3615 46.8029 36.3135 46.781 36.2606C46.7591 36.2078 46.7478 36.1511 46.7478 36.0939C46.7478 36.0369 46.7591 35.9804 46.781 35.9278C46.803 35.8751 46.8351 35.8273 46.8756 35.7871C46.9161 35.7469 46.9641 35.7152 47.017 35.6937C47.0698 35.6721 47.1264 35.6613 47.1834 35.6618H61.4179C61.4748 35.6613 61.5312 35.6722 61.5838 35.6937C61.6365 35.7153 61.6843 35.7471 61.7245 35.7873C61.7648 35.8275 61.7966 35.8754 61.8181 35.928C61.8397 35.9807 61.8506 36.0371 61.8501 36.0939C61.8506 36.151 61.8397 36.2075 61.8182 36.2604C61.7967 36.3132 61.7649 36.3613 61.7247 36.4018C61.6846 36.4422 61.6368 36.4744 61.5841 36.4963C61.5314 36.5183 61.475 36.5295 61.4179 36.5295Z" fill="white"/>
<path d="M66.978 39.1329H47.1834C47.1264 39.1334 47.0698 39.1225 47.017 39.101C46.9641 39.0795 46.9161 39.0477 46.8756 39.0076C46.8351 38.9674 46.803 38.9196 46.781 38.8669C46.7591 38.8143 46.7478 38.7578 46.7478 38.7007C46.7478 38.5852 46.7937 38.4744 46.8754 38.3927C46.9571 38.311 47.0679 38.2651 47.1834 38.2651H66.978C67.0935 38.2651 67.2043 38.311 67.286 38.3927C67.3677 38.4744 67.4136 38.5852 67.4136 38.7007C67.4136 38.7578 67.4023 38.8143 67.3803 38.8669C67.3584 38.9196 67.3263 38.9674 67.2858 39.0076C67.2453 39.0477 67.1972 39.0795 67.1444 39.101C67.0916 39.1225 67.035 39.1334 66.978 39.1329Z" fill="white"/>
<path d="M55.1685 41.74H47.1834C47.0679 41.74 46.9571 41.6941 46.8754 41.6124C46.7937 41.5307 46.7478 41.4199 46.7478 41.3044C46.7478 41.2473 46.7591 41.1909 46.781 41.1382C46.803 41.0855 46.8351 41.0377 46.8756 40.9976C46.9161 40.9574 46.9641 40.9256 47.017 40.9041C47.0698 40.8826 47.1264 40.8718 47.1834 40.8722H55.1685C55.2253 40.8717 55.2817 40.8826 55.3344 40.9042C55.387 40.9257 55.4348 40.9575 55.4751 40.9978C55.5153 41.038 55.5471 41.0858 55.5687 41.1385C55.5902 41.1911 55.6011 41.2475 55.6006 41.3044C55.6011 41.3614 55.5902 41.418 55.5687 41.4708C55.5472 41.5237 55.5155 41.5717 55.4753 41.6122C55.4351 41.6527 55.3873 41.6848 55.3346 41.7068C55.282 41.7287 55.2255 41.74 55.1685 41.74Z" fill="white"/>
</g>
<path d="M46.919 46.1679C47.3031 45.5437 48.0406 45.7838 48.4179 46.2674C48.7986 45.7803 49.5326 45.5402 49.9202 46.1645C50.5685 47.2175 49.2342 48.1951 48.6031 48.5655L48.4247 48.6753L48.2429 48.5655C47.6118 48.1985 46.2707 47.2244 46.919 46.1679Z" fill="white"/>
<g opacity="0.6">
<path d="M52.8804 46.3364H55.0138L54.9144 48.6894H52.9833L52.8804 46.3364Z" fill="white"/>
<path d="M54.3484 45.7808L54.2489 45.575H53.6486L53.5457 45.7808L52.6882 45.8802V46.1135H55.2093V45.8802L54.3484 45.7808Z" fill="white"/>
</g>
<g opacity="0.6">
<path d="M60.8346 45.66H60.2858C60.2559 45.6595 60.2268 45.6695 60.2035 45.6883C60.1803 45.7071 60.1645 45.7335 60.1588 45.7629L60.1211 45.9413H57.4732H57.4491H57.4286C57.4286 45.9413 57.4286 45.9413 57.4114 45.9584V45.979V45.9996C57.4097 46.0086 57.4097 46.0179 57.4114 46.027L57.6927 47.6151C57.6982 47.6448 57.7139 47.6716 57.7371 47.691C57.7602 47.7104 57.7894 47.7211 57.8196 47.7214H59.9325C59.9623 47.722 59.9915 47.7119 60.0147 47.6931C60.0379 47.6743 60.0537 47.6479 60.0594 47.6185L60.3784 46.0613C60.3815 46.0431 60.3815 46.0246 60.3784 46.0064L60.4058 45.8589H60.8517C60.8822 45.8539 60.91 45.8383 60.93 45.8147C60.95 45.7911 60.961 45.7612 60.961 45.7303C60.961 45.6994 60.95 45.6695 60.93 45.6459C60.91 45.6224 60.8822 45.6067 60.8517 45.6017L60.8346 45.66ZM59.9599 46.7439H59.4042L59.4351 46.1985H60.0697L59.9599 46.7439ZM58.5879 46.7439L58.5639 46.1985H59.1813L59.1504 46.7439H58.5879ZM59.1367 47.0011L59.1058 47.5293H58.6256L58.6016 47.0011H59.1367ZM57.6652 46.1985H58.3101L58.3341 46.7439H57.7647L57.6652 46.1985ZM57.8059 47.0011H58.3444L58.3684 47.5293H57.8985L57.8059 47.0011ZM59.8021 47.5293H59.3631L59.394 47.0011H59.9085L59.8021 47.5293Z" fill="white"/>
<path d="M57.9086 48.0471C57.8447 48.0465 57.782 48.0648 57.7286 48.0998C57.6751 48.1348 57.6332 48.1849 57.6083 48.2438C57.5834 48.3026 57.5765 48.3676 57.5885 48.4303C57.6006 48.4931 57.631 48.5509 57.676 48.5963C57.7209 48.6417 57.7784 48.6728 57.841 48.6855C57.9036 48.6982 57.9686 48.692 58.0278 48.6677C58.0869 48.6434 58.1374 48.6021 58.173 48.549C58.2086 48.4959 58.2276 48.4335 58.2276 48.3696C58.2276 48.2846 58.1941 48.2031 58.1344 48.1428C58.0747 48.0824 57.9935 48.048 57.9086 48.0471Z" fill="white"/>
<path d="M60.0451 48.0471C59.9812 48.0465 59.9185 48.0648 59.865 48.0998C59.8116 48.1348 59.7697 48.1849 59.7448 48.2438C59.7198 48.3026 59.713 48.3676 59.725 48.4303C59.7371 48.4931 59.7675 48.5509 59.8125 48.5963C59.8574 48.6417 59.9148 48.6728 59.9775 48.6855C60.0401 48.6982 60.1051 48.692 60.1642 48.6677C60.2234 48.6434 60.2739 48.6021 60.3095 48.549C60.3451 48.4959 60.3641 48.4335 60.3641 48.3696C60.3641 48.2846 60.3306 48.2031 60.2709 48.1428C60.2111 48.0824 60.13 48.048 60.0451 48.0471Z" fill="white"/>
</g>
<path d="M100.897 62.1241L98.0502 64.6829C98.0502 64.6829 99.1512 65.5507 99.4496 65.8559C99.748 66.1612 98.1496 67.1662 97.6763 66.8849C97.203 66.6037 96.4895 65.3483 96.2186 64.8269C95.9476 64.3056 97.2476 63.4721 97.2476 63.4721L99.5491 61.2323L100.897 62.1241Z" fill="#B97964"/>
<path d="M105.613 56.5949C105.514 58.6529 100.283 62.9918 100.283 62.9918L98.6367 61.9114C98.6367 61.9114 102.825 57.4833 102.279 56.1456C102.087 55.6757 101.422 55.0823 100.643 54.5163C99.5981 53.7823 98.5087 53.1133 97.3813 52.5132L98.5853 49.5531L99.5354 47.2207C101.305 47.9444 105.716 54.5575 105.613 56.5949Z" fill="#3958C3"/>
<path opacity="0.2" d="M100.643 54.5371C99.5981 53.803 98.5087 53.1341 97.3813 52.5339L98.5853 49.5739C99.5663 50.5857 101.079 52.5408 100.643 54.5371Z" fill="black"/>
<path d="M72.3249 48.857L66.4184 46.456C66.4184 46.456 65.9588 45.6911 65.5644 45.5916C65.1699 45.4921 62.7346 45.643 62.5494 45.9346C62.3642 46.2261 62.7449 48.0715 63.2354 48.2258C63.7259 48.3802 65.8182 47.9514 66 47.8348L71.2788 50.5342L72.3249 48.857Z" fill="#B97964"/>
<path d="M106.038 121.967L103.884 122.348L103.003 119.412L102.197 116.719L104.68 115.852L105.4 119.09L106.038 121.967Z" fill="#B97964"/>
<path opacity="0.2" d="M105.411 119.155L103.014 119.47L102.201 116.747L104.681 115.866L105.411 119.155Z" fill="black"/>
<path d="M91.6631 122.022H89.4782L89.1181 119.089L88.7922 116.349L91.3887 115.954L91.5362 119.172L91.6631 122.022Z" fill="#B97964"/>
<path opacity="0.2" d="M91.5362 119.368L89.1181 119.261L88.7922 116.435L91.3887 115.999L91.5362 119.368Z" fill="black"/>
<path d="M105.613 116.802L102.073 117.426C98.5027 108.508 95.9611 101.096 94.1843 94.9319C93.2171 91.6048 92.4522 88.6481 91.8725 86.0139L92.0234 95.7002V117.553H88.4356C79.6926 76.0497 85.8906 66.4012 85.8906 66.4012L96.3486 64.6519C96.763 66.5903 97.0563 68.5526 97.2267 70.5274L97.6966 73.9952L101.785 95.1137L105.613 116.802Z" fill="#3958C3"/>
<g opacity="0.5">
<path d="M105.613 116.802L102.073 117.426C98.8111 109.293 96.4066 102.392 94.6505 96.5611C94.4824 96.0089 94.3075 95.467 94.1531 94.9319C93.275 91.9135 92.6919 89.1969 92.0059 86.7616C91.9781 86.5128 91.9229 86.2678 91.8413 86.031L92.0059 95.7174V117.57H88.4353C83.0948 92.1879 83.328 78.7114 84.3193 72.0847C84.9504 67.8589 85.8903 66.456 85.8903 66.456L96.3483 64.6896C96.763 66.6245 97.0562 68.5834 97.2264 70.5549L97.367 71.5839L97.71 74.0055L101.799 95.1205L105.613 116.802Z" fill="white"/>
</g>
<path d="M101.521 116.987L105.911 115.532L105.849 117.398L102.22 118.558L101.521 116.987Z" fill="#3958C3"/>
<path opacity="0.6" d="M101.521 116.987L105.911 115.532L105.849 117.398L102.22 118.558L101.521 116.987Z" fill="white"/>
<path d="M87.9653 117.189L92.5444 116.521L92.1602 118.349L88.3838 118.86L87.9653 117.189Z" fill="#3958C3"/>
<path opacity="0.6" d="M87.9653 117.189L92.5444 116.521L92.1602 118.349L88.3838 118.86L87.9653 117.189Z" fill="white"/>
<path opacity="0.2" d="M94.6679 96.5616C94.4999 96.0094 94.3249 95.4675 94.1706 94.9324C93.2959 91.914 92.7094 89.1974 92.0234 86.7621L91.6804 82.2757C91.6804 82.2757 93.9168 77.3468 93.0799 73.8756C93.1553 74.0746 94.6371 77.8544 94.0574 81.6274C93.9218 86.6136 94.1258 91.6032 94.6679 96.5616Z" fill="black"/>
<path d="M94.2493 43.722C94.2267 43.7486 94.2015 43.7728 94.1738 43.7941C93.8141 44.1499 93.3874 44.4308 92.9185 44.6207C91.5465 45.1318 90.5483 45.0597 89.8315 44.5007C88.823 43.6534 88.384 41.9762 88.2434 39.9045C88.1608 39.0822 88.2094 38.2521 88.3874 37.4451C88.3857 37.4338 88.3857 37.4222 88.3874 37.4108C88.3874 37.3834 88.3874 37.3457 88.4114 37.3182C88.5289 36.8612 88.759 36.4409 89.0808 36.0958C89.4025 35.7507 89.8057 35.4917 90.2534 35.3425C90.6406 35.2013 91.0419 35.1024 91.4504 35.0476C95.4532 34.4919 97.0276 41.0398 94.2493 43.722Z" fill="#B97964"/>
<path opacity="0.2" d="M94.1737 43.7942C93.807 44.1326 93.3768 44.3949 92.908 44.5659C91.536 45.0736 90.5345 44.9569 89.821 44.3876C90.6951 44.4897 91.5785 44.3017 92.3352 43.8525C92.6174 43.7046 92.9294 43.6225 93.2478 43.6124C93.5662 43.6023 93.8828 43.6644 94.1737 43.7942Z" fill="black"/>
<path d="M95.2952 46.8911C95.9297 47.8824 94.6949 48.8394 94.6949 48.8394C92.047 48.7125 91.1723 47.6526 91.1723 47.6526C92.7124 45.9376 91.1174 43.3445 91.1174 43.3445L91.5771 43.3891L94.496 42.9158C94.496 42.9158 94.2799 44.6308 94.3005 45.0115C94.4274 46.9392 95.2952 46.8911 95.2952 46.8911Z" fill="#B97964"/>
<path d="M88.3806 37.4209C88.3806 37.4209 88.5212 40.2575 91.3373 41.1253C91.3373 41.1253 92.8568 43.8968 94.5443 43.7218C96.8493 43.4852 98.4511 39.9488 97.23 36.7349C95.6488 32.5538 89.0666 33.0408 88.3806 37.4209Z" fill="#14182C"/>
<path d="M89.8863 40.491C89.8314 40.0519 90.0887 39.2699 90.785 39.2836C91.4813 39.2973 92.1158 40.9986 90.442 41.5954C90.2087 41.6846 90.0029 41.4068 89.8863 40.491Z" fill="#B97964"/>
<path d="M89.2455 121.607H91.6876C91.738 121.608 91.7866 121.626 91.8257 121.658C91.8648 121.689 91.8923 121.733 91.9037 121.782L92.4045 124.046C92.4145 124.094 92.4149 124.144 92.4057 124.192C92.3964 124.241 92.3777 124.287 92.3506 124.328C92.3235 124.369 92.2886 124.404 92.2478 124.432C92.207 124.459 92.1612 124.479 92.1129 124.488C92.0856 124.492 92.058 124.492 92.0306 124.488C91.0325 124.471 90.9536 124.41 89.6982 124.41C88.9265 124.41 86.5941 124.492 85.5273 124.492C84.4606 124.492 84.3234 123.439 84.759 123.339C86.7175 122.914 88.189 122.31 88.8201 121.758C88.9374 121.655 89.0896 121.601 89.2455 121.607Z" fill="#14182C"/>
<path d="M88.4043 122.053C88.2323 122.066 88.0608 122.022 87.9173 121.926C87.8659 121.887 87.8267 121.834 87.8043 121.773C87.7818 121.712 87.777 121.646 87.7903 121.583C87.7899 121.548 87.7994 121.514 87.8176 121.484C87.8358 121.454 87.862 121.43 87.8932 121.415C88.1745 121.271 88.9977 121.775 89.0869 121.833C89.0974 121.839 89.1059 121.847 89.1109 121.858C89.1159 121.868 89.1171 121.88 89.1143 121.892C89.1132 121.904 89.1083 121.915 89.1003 121.925C89.0923 121.934 89.0816 121.94 89.0697 121.943C88.8526 122.004 88.6295 122.041 88.4043 122.053ZM88.027 121.528C88.0012 121.521 87.974 121.521 87.9481 121.528C87.9481 121.528 87.9138 121.552 87.9104 121.6C87.9056 121.64 87.9102 121.68 87.924 121.718C87.9377 121.755 87.96 121.789 87.9893 121.816C88.2741 121.947 88.5978 121.964 88.8948 121.864C88.63 121.697 88.3353 121.583 88.027 121.528Z" fill="#3958C3"/>
<path d="M89.0563 121.964H89.0254C88.7648 121.823 88.2571 121.261 88.3086 120.993C88.3173 120.949 88.3413 120.909 88.3763 120.88C88.4113 120.851 88.4553 120.836 88.5006 120.836C88.5466 120.831 88.5931 120.835 88.6373 120.849C88.6815 120.862 88.7225 120.885 88.7579 120.915C89.0529 121.151 89.1009 121.882 89.1009 121.92C89.1015 121.93 89.0993 121.941 89.0945 121.951C89.0897 121.96 89.0824 121.968 89.0735 121.974C89.0671 121.972 89.0612 121.969 89.0563 121.964ZM88.5452 120.935H88.5144C88.4389 120.935 88.432 120.983 88.4286 120.997C88.3943 121.161 88.7202 121.587 88.9809 121.782C88.9627 121.493 88.8575 121.215 88.679 120.987C88.642 120.953 88.5948 120.934 88.5452 120.932V120.935Z" fill="#3958C3"/>
<path d="M103.802 121.607H106.24C106.291 121.607 106.34 121.624 106.38 121.656C106.419 121.688 106.446 121.733 106.456 121.782L106.957 124.046C106.968 124.094 106.969 124.144 106.96 124.192C106.951 124.24 106.933 124.286 106.906 124.328C106.879 124.369 106.844 124.404 106.804 124.432C106.763 124.459 106.717 124.479 106.669 124.488H106.587C105.589 124.471 105.506 124.41 104.254 124.41C103.479 124.41 101.15 124.492 100.084 124.492C99.0168 124.492 98.8762 123.439 99.3152 123.339C101.274 122.914 102.745 122.31 103.373 121.758C103.491 121.655 103.645 121.601 103.802 121.607Z" fill="#14182C"/>
<path d="M102.961 122.053C102.788 122.067 102.615 122.022 102.471 121.926C102.422 121.885 102.385 121.831 102.363 121.771C102.341 121.711 102.336 121.646 102.347 121.583C102.347 121.548 102.356 121.514 102.374 121.484C102.392 121.454 102.419 121.43 102.45 121.415C102.732 121.271 103.551 121.775 103.644 121.833C103.654 121.839 103.662 121.848 103.667 121.858C103.672 121.869 103.674 121.88 103.671 121.892C103.67 121.904 103.665 121.915 103.657 121.924C103.649 121.933 103.638 121.94 103.627 121.943C103.41 122.004 103.186 122.04 102.961 122.053ZM102.581 121.528C102.556 121.522 102.53 121.522 102.505 121.528C102.488 121.528 102.467 121.552 102.467 121.6C102.462 121.64 102.466 121.68 102.48 121.718C102.494 121.756 102.516 121.79 102.546 121.816C102.831 121.947 103.155 121.964 103.452 121.864C103.186 121.696 102.89 121.582 102.581 121.528Z" fill="#3958C3"/>
<path d="M103.61 121.964H103.586C103.322 121.824 102.814 121.261 102.865 120.993C102.875 120.949 102.9 120.909 102.936 120.881C102.971 120.852 103.015 120.836 103.061 120.836C103.106 120.831 103.152 120.836 103.196 120.85C103.239 120.863 103.28 120.885 103.315 120.915C103.61 121.151 103.658 121.882 103.675 121.92C103.675 121.93 103.672 121.941 103.667 121.95C103.663 121.96 103.656 121.968 103.647 121.974C103.634 121.975 103.621 121.972 103.61 121.964ZM103.099 120.935H103.071C102.992 120.935 102.985 120.983 102.982 120.997C102.951 121.162 103.274 121.587 103.534 121.782C103.519 121.493 103.415 121.215 103.236 120.987C103.198 120.953 103.149 120.934 103.099 120.932V120.935Z" fill="#3958C3"/>
<path d="M85.8904 66.4496C85.8904 66.4496 84.5184 53.1 87.9484 47.6497C87.9484 47.6497 92.7504 45.9827 99.5349 47.2347C99.5349 47.2347 97.0002 56.6089 96.7052 66.4427L85.8904 66.4496Z" fill="#14182C"/>
<path d="M98.6158 63.9966L87.2968 64.295C86.5253 62.3673 86.0478 60.3347 85.8802 58.2651C85.7473 56.7228 85.7278 55.1729 85.8219 53.6277C85.9114 51.897 86.1408 50.1764 86.5079 48.4827C89.3994 45.2963 99.5145 47.2239 99.5145 47.2239C97.995 54.4647 98.6158 63.9966 98.6158 63.9966Z" fill="#3958C3"/>
<path d="M88.8368 35.4149C88.7648 35.2263 87.7358 36.1901 87.6878 36.2621C87.466 36.5726 87.3359 36.9392 87.3123 37.32C87.2886 37.7008 87.3724 38.0806 87.554 38.4162C87.9553 39.1022 88.7888 39.5789 88.8609 40.3713C88.8917 40.7348 88.7477 41.0916 88.7477 41.4586C88.7706 41.9424 88.978 42.399 89.3273 42.7345C89.9962 43.4205 91.0938 43.7121 91.1624 44.8234C91.1526 45.3109 91.1171 45.7974 91.0561 46.2812C91.028 46.5244 91.0578 46.7707 91.1431 47.0002C91.2283 47.2297 91.3665 47.4358 91.5465 47.6017C91.8515 47.7694 92.1781 47.894 92.5172 47.9722C92.8431 48.0922 93.1724 48.3597 93.1586 48.7062C93.1079 48.9257 93.0319 49.1386 92.9323 49.3407C92.8941 49.5423 92.9156 49.7506 92.9942 49.9402C93.0728 50.1297 93.2051 50.2921 93.3747 50.4075C94.0367 50.9151 95.1172 50.8602 95.6488 51.5634C95.7407 51.6618 95.8099 51.7793 95.8516 51.9073C95.8933 52.0354 95.9064 52.1711 95.8901 52.3048C95.8737 52.4385 95.8283 52.567 95.757 52.6812C95.6857 52.7955 95.5902 52.8928 95.4773 52.9662C95.4773 52.9662 96.7533 53.0554 96.9797 51.8343C97.0787 52.1405 97.0533 52.4733 96.9089 52.7609C96.7645 53.0485 96.5127 53.2676 96.2079 53.371C96.2079 53.371 97.4221 53.5528 97.652 52.0161C97.7564 52.2283 97.9307 52.398 98.1456 52.4967C98.3605 52.5954 98.6029 52.6171 98.8319 52.5581C98.8319 52.5581 97.892 52.2356 98.6123 51.2204C99.0239 50.6407 99.5659 50.0473 99.6413 49.3099C99.7374 48.4867 99.0583 47.859 99.1749 47.0323C99.2812 46.2572 100.019 45.6981 100.204 44.9366C100.302 44.4475 100.213 43.9392 99.9535 43.5132C99.559 42.8272 98.7736 42.4842 98.7736 41.6129C98.7736 40.9269 99.0514 40.2615 99.1989 39.5858C99.3316 39.1155 99.2927 38.6134 99.0891 38.1692C98.8699 37.8425 98.5961 37.5559 98.2796 37.322C97.357 36.4954 97.8337 35.1988 97.0037 34.2899C96.8117 34.0756 96.5728 33.9084 96.3057 33.8013C96.0387 33.6942 95.7505 33.6502 95.4636 33.6725C95.1327 33.7376 94.8062 33.8235 94.4861 33.9297C93.8001 34.0978 93.3885 33.7548 92.8637 33.3981C92.013 32.8218 90.7851 32.5509 89.8281 33.0311C89.4039 33.2429 89.0703 33.6005 88.8882 34.0383C88.7062 34.4761 88.6879 34.9648 88.8368 35.4149Z" fill="#14182C"/>
<path d="M90.483 43.8113C90.2237 43.8272 89.9639 43.7897 89.7196 43.7012C89.4754 43.6127 89.2519 43.4751 89.0629 43.2968C88.617 42.8338 88.5622 42.1924 88.5656 41.5818V41.4172C88.5656 40.7827 88.5656 40.2373 88.2226 39.7022C88.1128 39.5341 87.9825 39.3592 87.859 39.2151C87.606 38.9267 87.3979 38.6018 87.2416 38.2513C87.1564 38.038 87.116 37.8095 87.1231 37.5799C87.1302 37.3503 87.1845 37.1247 87.2828 36.917C87.763 35.888 89.087 35.3838 89.4814 35.2535C89.5014 35.2462 89.5235 35.2472 89.5428 35.2562C89.5621 35.2652 89.577 35.2815 89.5843 35.3015C89.5916 35.3215 89.5906 35.3436 89.5816 35.3629C89.5726 35.3822 89.5563 35.3971 89.5363 35.4044C88.7508 35.6685 87.787 36.2242 87.4303 36.9856C87.3401 37.1731 87.2902 37.3774 87.2837 37.5853C87.2772 37.7933 87.3143 38.0002 87.3925 38.193C87.5419 38.5281 87.742 38.8382 87.9859 39.1122C88.1128 39.2735 88.2432 39.4381 88.3564 39.613C88.7337 40.1858 88.7268 40.7827 88.7199 41.4138V41.5784C88.7199 42.1684 88.768 42.7755 89.1727 43.1939C89.7387 43.777 90.6442 43.6982 91.3713 43.5644C91.3919 43.5621 91.4126 43.5676 91.4293 43.5799C91.446 43.5922 91.4574 43.6104 91.4613 43.6307C91.4652 43.6511 91.4613 43.6721 91.4503 43.6897C91.4394 43.7073 91.4222 43.7201 91.4022 43.7256C91.0988 43.7804 90.7913 43.8091 90.483 43.8113Z" fill="#14182C"/>
<path d="M98.6743 51.8478C98.6615 51.8476 98.649 51.8443 98.6377 51.8384C98.6263 51.8324 98.6166 51.8239 98.6091 51.8135C98.3141 51.3882 98.9521 50.6645 99.398 50.1843C99.4923 50.0859 99.5816 49.9829 99.6656 49.8756C99.8634 49.6418 99.9795 49.3498 99.9962 49.0439C100.013 48.7381 99.9294 48.4352 99.7582 48.1812L99.6381 48.0131C99.3637 47.6289 99.0516 47.1899 99.2951 46.6617C99.4017 46.4531 99.5367 46.2603 99.6964 46.0889C99.8396 45.9391 99.9619 45.7706 100.06 45.5881C100.22 45.2765 100.251 44.9144 100.147 44.58C100.042 44.2457 99.8101 43.9659 99.5009 43.8011C99.4915 43.7961 99.4832 43.7892 99.4765 43.7809C99.4699 43.7726 99.4649 43.763 99.462 43.7528C99.4592 43.7425 99.4584 43.7318 99.4598 43.7212C99.4611 43.7107 99.4646 43.7005 99.4701 43.6913C99.482 43.6733 99.5 43.6603 99.5209 43.6546C99.5417 43.649 99.5638 43.651 99.5832 43.6604C99.9253 43.8487 100.181 44.1622 100.297 44.5351C100.413 44.908 100.379 45.3112 100.204 45.6601C100.099 45.8539 99.97 46.0337 99.8199 46.1952C99.6697 46.3537 99.5427 46.5327 99.4426 46.7269C99.2437 47.1728 99.5044 47.5363 99.7856 47.9205L99.9057 48.092C100.096 48.3725 100.19 48.7076 100.172 49.0462C100.155 49.3848 100.028 49.7086 99.8096 49.9682C99.7234 50.0821 99.6306 50.1909 99.5318 50.2941C99.1579 50.7057 98.5337 51.4019 98.7532 51.7209C98.7656 51.7383 98.7707 51.7599 98.7675 51.781C98.7643 51.8021 98.753 51.8212 98.736 51.8341C98.718 51.8464 98.6959 51.8513 98.6743 51.8478Z" fill="#14182C"/>
<path opacity="0.2" d="M85.8905 58.2655C85.7576 56.7232 85.7381 55.1733 85.8321 53.6281C87.091 52.5786 88.0685 51.8308 88.0685 51.8308C88.0685 51.8308 88.4355 55.7719 85.8905 58.2655Z" fill="black"/>
<path d="M88.5864 47.3341C88.5864 47.3341 89.4988 51.9337 85.8013 54.2421C85.8013 54.2421 76.9553 54.2181 75.2746 53.6693C73.5939 53.1205 68.4695 49.7488 68.4695 49.7488L69.7626 47.5022C69.7626 47.5022 74.7087 49.2549 76.2007 49.7488C77.6928 50.2427 88.5864 47.3341 88.5864 47.3341Z" fill="#3958C3"/>
</g>
<defs>
<clipPath id="clip0_793_249468">
<rect width="144.403" height="127.939" fill="white"/>
</clipPath>
</defs>
</svg>
