<svg width="121" height="150" viewBox="0 0 121 150" fill="none" xmlns="http://www.w3.org/2000/svg">
<g opacity="0.28">
<path d="M46.0809 82.1536L35.1374 84.2922C34.1579 84.4796 33.1441 84.2722 32.3168 83.7153C31.4896 83.1584 30.916 82.297 30.7211 81.319C30.5338 80.3405 30.7413 79.3277 31.2982 78.5016C31.8551 77.6755 32.7162 77.1034 33.6935 76.91L44.637 74.7714C45.6147 74.5817 46.6278 74.7872 47.4544 75.3429C48.2809 75.8987 48.8535 76.7594 49.0467 77.7364C49.2366 78.7152 49.0311 79.7293 48.4753 80.557C47.9196 81.3848 47.0587 81.9588 46.0809 82.1536Z" fill="#1C6EFF"/>
</g>
<path d="M86.4911 7.658L22.4481 4.78821C21.317 4.73492 20.1864 4.90524 19.1212 5.2894C18.0559 5.67356 17.0769 6.26402 16.2401 7.02699C15.4033 7.78997 14.7252 8.71047 14.2446 9.73582C13.7639 10.7612 13.4902 11.8712 13.4391 13.0025L8.13321 131.368C8.08074 132.5 8.25216 133.631 8.63765 134.697C9.02313 135.762 9.61509 136.741 10.3796 137.578C11.1442 138.414 12.0662 139.091 13.093 139.571C14.1197 140.05 15.231 140.322 16.363 140.371L98.3303 144.043C99.4603 144.096 100.59 143.924 101.653 143.54C102.717 143.155 103.694 142.564 104.529 141.8C105.364 141.037 106.04 140.116 106.518 139.091C106.997 138.066 107.268 136.957 107.317 135.827L111.851 35.3814L86.4911 7.658Z" fill="#1C6EFF"/>
<path opacity="0.8" d="M86.4911 7.658L22.4481 4.78821C21.317 4.73492 20.1864 4.90524 19.1212 5.2894C18.0559 5.67356 17.0769 6.26402 16.2401 7.02699C15.4033 7.78997 14.7252 8.71047 14.2446 9.73582C13.7639 10.7612 13.4902 11.8712 13.4391 13.0025L8.13321 131.368C8.08074 132.5 8.25216 133.631 8.63765 134.697C9.02313 135.762 9.61509 136.741 10.3796 137.578C11.1442 138.414 12.0662 139.091 13.093 139.571C14.1197 140.05 15.231 140.322 16.363 140.371L98.3303 144.043C99.4603 144.096 100.59 143.924 101.653 143.54C102.717 143.155 103.694 142.564 104.529 141.8C105.364 141.037 106.04 140.116 106.518 139.091C106.997 138.066 107.268 136.957 107.317 135.827L111.851 35.3814L86.4911 7.658Z" fill="white"/>
<g opacity="0.22">
<path d="M77.1839 131.189L23.8938 128.803C22.8988 128.754 21.9636 128.313 21.2924 127.577C20.6212 126.841 20.2685 125.869 20.3114 124.874C20.3603 123.879 20.7998 122.944 21.5344 122.272C22.269 121.599 23.2393 121.244 24.2343 121.283L77.5236 123.676C78.5189 123.723 79.4552 124.162 80.128 124.897C80.8007 125.632 81.1553 126.603 81.1142 127.599C81.067 128.595 80.627 129.533 79.8904 130.205C79.1538 130.878 78.1806 131.232 77.1839 131.189Z" fill="#1C6EFF"/>
</g>
<g opacity="0.22">
<path d="M56.7615 25.725L28.5763 24.4461C27.5817 24.3972 26.6466 23.9577 25.9742 23.2231C25.3019 22.4885 24.9466 21.5182 24.9857 20.5232C25.0348 19.5274 25.4754 18.5913 26.2116 17.9189C26.9478 17.2465 27.9198 16.8923 28.916 16.9334L57.1028 18.1975C58.0973 18.2445 59.0328 18.6836 59.7043 19.4187C60.3759 20.1537 60.7289 21.1249 60.686 22.1196C60.6428 23.1179 60.2053 24.0581 59.4695 24.7341C58.7337 25.41 57.7598 25.7664 56.7615 25.725Z" fill="#1C6EFF"/>
</g>
<g opacity="0.22">
<path d="M74.4802 41.4616L27.9089 39.3683C26.9129 39.3232 25.9755 38.8849 25.3024 38.1494C24.6292 37.414 24.2753 36.4415 24.3183 35.4454C24.3655 34.4489 24.8056 33.5117 25.5422 32.8389C26.2788 32.1661 27.2519 31.8125 28.2486 31.8556L74.8125 33.9481C75.8085 33.9932 76.7459 34.4316 77.4191 35.167C78.0922 35.9025 78.4461 36.875 78.4031 37.871C78.3561 38.8664 77.9172 39.8026 77.1821 40.4754C76.4471 41.1481 75.4758 41.5027 74.4802 41.4616Z" fill="#1C6EFF"/>
</g>
<g opacity="0.22">
<path d="M95.2068 57.333L27.2406 54.283C26.2419 54.2377 25.3018 53.7985 24.6263 53.0616C23.9507 52.3246 23.5946 51.35 23.6361 50.3511C23.683 49.3566 24.1221 48.4212 24.8572 47.7496C25.5922 47.0781 26.5634 46.7251 27.5582 46.7679L95.5325 49.8113C96.5276 49.8604 97.4628 50.3012 98.134 51.0374C98.8052 51.7736 99.1578 52.7455 99.115 53.7408C99.0683 54.7338 98.6316 55.6682 97.8998 56.3408C97.1679 57.0135 96.2001 57.3701 95.2068 57.333Z" fill="#1C6EFF"/>
</g>
<g opacity="0.22">
<path d="M94.5404 72.2402L55.0284 70.468C54.0331 70.421 53.0968 69.982 52.424 69.247C51.7513 68.512 51.3967 67.5406 51.4378 66.5451C51.4829 65.5491 51.9212 64.6117 52.6567 63.9385C53.3921 63.2653 54.3646 62.9114 55.3607 62.9545L94.8727 64.7267C95.8687 64.7718 96.8061 65.2101 97.4793 65.9456C98.1525 66.6811 98.5063 67.6535 98.4633 68.6496C98.4163 69.6449 97.9774 70.5812 97.2424 71.254C96.5073 71.9267 95.536 72.2813 94.5404 72.2402Z" fill="#1C6EFF"/>
</g>
<g opacity="0.22">
<path d="M36.9036 69.6515L26.5665 69.1892C25.572 69.1423 24.6365 68.7032 23.965 67.9681C23.2934 67.233 22.9404 66.2618 22.9833 65.2671C23.0303 64.2718 23.4692 63.3355 24.2043 62.6628C24.9393 61.99 25.9106 61.6355 26.9062 61.6765L37.2432 62.1387C38.2391 62.1878 39.1751 62.6285 39.8475 63.3646C40.5199 64.1008 40.8741 65.0728 40.8331 66.069C40.784 67.0641 40.3432 67.9993 39.607 68.6705C38.8708 69.3417 37.8989 69.6944 36.9036 69.6515Z" fill="#1C6EFF"/>
</g>
<g opacity="0.22">
<path d="M93.8731 87.1475L25.8995 84.0967C24.9042 84.0497 23.9679 83.6108 23.2952 82.8758C22.6224 82.1407 22.2679 81.1694 22.3089 80.1738C22.358 79.178 22.7986 78.2419 23.5348 77.5695C24.271 76.8971 25.243 76.5429 26.2392 76.584L94.2054 79.634C95.2019 79.6812 96.1391 80.1212 96.8119 80.8578C97.4847 81.5944 97.8383 82.5676 97.7952 83.5643C97.7482 84.5588 97.3092 85.4943 96.5741 86.1658C95.839 86.8374 94.8678 87.1904 93.8731 87.1475Z" fill="#1C6EFF"/>
</g>
<g opacity="0.22">
<path d="M66.9741 100.88L25.2323 99.0116C24.2365 98.9625 23.3005 98.5218 22.6281 97.7857C21.9557 97.0495 21.6014 96.0775 21.6425 95.0813C21.6916 94.0862 22.1324 93.151 22.8686 92.4798C23.6048 91.8086 24.5767 91.456 25.572 91.4989L67.3138 93.3674C68.3089 93.4165 69.2441 93.8573 69.9153 94.5935C70.5865 95.3297 70.9391 96.3016 70.8962 97.2969C70.8512 98.2922 70.4127 99.2288 69.6772 99.9007C68.9417 100.573 67.9694 100.925 66.9741 100.88Z" fill="#1C6EFF"/>
</g>
<g opacity="0.22">
<path d="M93.1988 102.061L82.0523 101.557C81.0578 101.51 80.1224 101.071 79.4508 100.336C78.7793 99.6012 78.4263 98.63 78.4691 97.6353C78.5142 96.6393 78.9526 95.7019 79.688 95.0287C80.4235 94.3556 81.3959 94.0017 82.392 94.0447L93.5385 94.5486C94.5345 94.5937 95.4719 95.0321 96.1451 95.7675C96.8182 96.503 97.1721 97.4754 97.1291 98.4715C97.08 99.4673 96.6394 100.403 95.9032 101.076C95.167 101.748 94.195 102.102 93.1988 102.061Z" fill="#1C6EFF"/>
</g>
<g opacity="0.22">
<path d="M92.5317 116.968L24.5655 113.918C23.5702 113.871 22.6339 113.432 21.9612 112.697C21.2884 111.962 20.9338 110.991 20.9749 109.995C21.0219 109 21.4608 108.064 22.1958 107.391C22.9309 106.718 23.9022 106.364 24.8978 106.405L92.8713 109.455C93.8659 109.502 94.8013 109.941 95.4729 110.676C96.1444 111.412 96.4974 112.383 96.4546 113.377C96.4095 114.373 95.9711 115.311 95.2357 115.984C94.5002 116.657 93.5277 117.011 92.5317 116.968Z" fill="#1C6EFF"/>
</g>
<path opacity="0.22" d="M86.4912 7.6582L85.6888 25.5826C85.6375 26.7127 85.8093 27.8418 86.1945 28.9054C86.5797 29.969 87.1706 30.9464 87.9335 31.7816C88.6965 32.6169 89.6165 33.2936 90.641 33.7732C91.6656 34.2528 92.7746 34.5259 93.9046 34.5768L111.851 35.3816L86.4912 7.6582Z" fill="#1C6EFF"/>
</svg>
