<svg width="393" height="293" viewBox="0 0 393 293" fill="none" xmlns="http://www.w3.org/2000/svg">
<g filter="url(#filter1_d_1_47207)">
<rect x="125" y="62" width="145" height="145" rx="40" fill="black" shape-rendering="crispEdges"/>
</g>
<path d="M165.112 147.56C166.554 147.56 167.724 148.73 167.724 150.172C167.724 156.566 169.365 159.094 171.141 160.859C172.917 162.635 175.434 164.276 181.828 164.276C183.27 164.276 184.44 165.446 184.44 166.888C184.44 168.329 183.27 169.5 181.828 169.5C173.46 169.5 169.75 166.857 167.441 164.559C165.143 162.26 162.5 158.54 162.5 150.172C162.5 148.73 163.671 147.56 165.112 147.56ZM229.888 147.56C231.329 147.56 232.5 148.73 232.5 150.172C232.5 158.54 229.857 162.25 227.559 164.559C225.26 166.868 221.54 169.5 213.172 169.5C211.73 169.5 210.56 168.329 210.56 166.888C210.56 165.446 211.73 164.276 213.172 164.276C219.566 164.276 222.094 162.635 223.859 160.859C225.625 159.083 227.276 156.566 227.276 150.172C227.276 148.73 228.446 147.56 229.888 147.56ZM208.282 144.802C208.961 144.802 209.557 145.042 210.037 145.512C210.528 145.982 210.769 146.578 210.769 147.288C210.769 147.675 210.716 148.019 210.602 148.322C210.487 148.625 210.32 148.897 210.09 149.127C208.408 150.809 206.454 152.115 204.239 153.045C202.024 153.975 199.767 154.444 197.469 154.444L197.448 154.455C195.129 154.455 192.83 154.006 190.562 153.097C188.285 152.188 186.384 150.851 184.858 149.096C184.608 148.824 184.409 148.532 184.283 148.239C184.158 147.947 184.096 147.633 184.096 147.299C184.096 146.588 184.347 145.993 184.827 145.522C185.308 145.052 185.914 144.812 186.624 144.812C187.084 144.812 187.459 144.906 187.752 145.115C188.044 145.324 188.347 145.565 188.65 145.847C189.747 146.964 191.095 147.862 192.673 148.521C194.261 149.179 195.849 149.514 197.458 149.514C199.171 149.514 200.812 149.179 202.379 148.5C203.946 147.821 205.252 146.933 206.297 145.836C206.934 145.146 207.603 144.802 208.282 144.802ZM198.419 121.127C199.182 121.127 199.788 121.347 200.237 121.796C200.686 122.235 200.906 122.83 200.906 123.571V135.628C200.906 137.571 200.405 139.044 199.381 140.068C198.357 141.082 196.884 141.594 194.94 141.594H194.596L194.585 141.604C193.645 141.604 192.903 141.375 192.37 140.915C191.837 140.455 191.565 139.818 191.565 139.003C191.565 138.313 191.806 137.728 192.276 137.258C192.757 136.788 193.331 136.548 194.021 136.548H195.358C195.536 136.548 195.672 136.506 195.776 136.412C195.881 136.329 195.933 136.182 195.933 135.973V123.571C195.933 122.83 196.163 122.245 196.622 121.796C197.082 121.347 197.656 121.127 198.419 121.127ZM183.124 121.169C184.022 121.169 184.754 121.451 185.328 122.025C185.903 122.6 186.185 123.342 186.186 124.261V129.464C186.186 130.383 185.903 131.126 185.328 131.7C184.754 132.275 184.012 132.557 183.124 132.557C182.226 132.557 181.494 132.275 180.919 131.7C180.344 131.126 180.062 130.383 180.062 129.464V124.261C180.063 123.342 180.345 122.6 180.919 122.025C181.494 121.451 182.226 121.169 183.124 121.169ZM212.127 121.169C213.025 121.169 213.756 121.451 214.331 122.025C214.906 122.6 215.188 123.342 215.188 124.261V129.464C215.188 130.383 214.906 131.126 214.331 131.7C213.756 132.275 213.015 132.557 212.127 132.557C211.229 132.557 210.497 132.275 209.923 131.7C209.348 131.126 209.065 130.383 209.065 129.464V124.261C209.066 123.342 209.348 122.6 209.923 122.025C210.497 121.451 211.229 121.169 212.127 121.169ZM181.828 99.5C183.27 99.5 184.44 100.671 184.44 102.112C184.44 103.554 183.27 104.724 181.828 104.724C175.434 104.724 172.906 106.365 171.141 108.141C169.365 109.917 167.724 112.434 167.724 118.828C167.724 120.27 166.554 121.44 165.112 121.44C163.671 121.44 162.5 120.27 162.5 118.828C162.5 110.46 165.143 106.75 167.441 104.441C169.75 102.143 173.46 99.5 181.828 99.5ZM213.172 99.5C221.54 99.5001 225.25 102.143 227.559 104.441C229.857 106.74 232.5 110.46 232.5 118.828C232.5 120.27 231.329 121.44 229.888 121.44C228.446 121.44 227.276 120.27 227.276 118.828C227.276 112.434 225.635 109.906 223.859 108.141C222.083 106.365 219.566 104.724 213.172 104.724C211.73 104.724 210.56 103.554 210.56 102.112C210.56 100.671 211.73 99.5 213.172 99.5Z" fill="#87FA89"/>
<defs>
<filter id="filter1_d_1_47207" x="51" y="0" width="293" height="293" filterUnits="userSpaceOnUse" color-interpolation-filters="sRGB">
<feFlood flood-opacity="0" result="BackgroundImageFix"/>
<feColorMatrix in="SourceAlpha" type="matrix" values="0 0 0 0 0 0 0 0 0 0 0 0 0 0 0 0 0 0 127 0" result="hardAlpha"/>
<feOffset dy="12"/>
<feGaussianBlur stdDeviation="37"/>
<feComposite in2="hardAlpha" operator="out"/>
<feColorMatrix type="matrix" values="0 0 0 0 0 0 0 0 0 0 0 0 0 0 0 0 0 0 0.22 0"/>
<feBlend mode="normal" in2="BackgroundImageFix" result="effect1_dropShadow_1_47207"/>
<feBlend mode="normal" in="SourceGraphic" in2="effect1_dropShadow_1_47207" result="shape"/>
</filter>
</defs>
</svg>
