<svg width="393" height="293" viewBox="0 0 393 293" fill="none" xmlns="http://www.w3.org/2000/svg">
<g filter="url(#filter1_d_1_47213)">
<rect x="125.5" y="62" width="143" height="145" rx="40" fill="black" shape-rendering="crispEdges"/>
</g>
<circle cx="197" cy="135" r="32.75" stroke="#87FA89" stroke-width="4.5"/>
<path d="M193.78 149.733C192.919 149.733 192.181 149.351 191.565 148.585L183.219 137.982C182.986 137.695 182.815 137.422 182.706 137.162C182.61 136.889 182.562 136.622 182.562 136.362C182.562 135.72 182.768 135.2 183.178 134.804C183.588 134.407 184.107 134.209 184.736 134.209C185.475 134.209 186.097 134.537 186.603 135.193L193.698 144.545L207.356 122.745C207.644 122.308 207.931 122.007 208.218 121.843C208.505 121.665 208.867 121.576 209.305 121.576C209.934 121.576 210.446 121.774 210.843 122.171C211.239 122.554 211.438 123.053 211.438 123.668C211.438 123.914 211.396 124.167 211.314 124.427C211.232 124.687 211.089 124.967 210.884 125.268L195.975 148.564C195.455 149.344 194.724 149.733 193.78 149.733Z" fill="#87FA89"/>
<defs>
<filter id="filter1_d_1_47213" x="51.5" y="0" width="291" height="293" filterUnits="userSpaceOnUse" color-interpolation-filters="sRGB">
<feFlood flood-opacity="0" result="BackgroundImageFix"/>
<feColorMatrix in="SourceAlpha" type="matrix" values="0 0 0 0 0 0 0 0 0 0 0 0 0 0 0 0 0 0 127 0" result="hardAlpha"/>
<feOffset dy="12"/>
<feGaussianBlur stdDeviation="37"/>
<feComposite in2="hardAlpha" operator="out"/>
<feColorMatrix type="matrix" values="0 0 0 0 0 0 0 0 0 0 0 0 0 0 0 0 0 0 0.22 0"/>
<feBlend mode="normal" in2="BackgroundImageFix" result="effect1_dropShadow_1_47213"/>
<feBlend mode="normal" in="SourceGraphic" in2="effect1_dropShadow_1_47213" result="shape"/>
</filter>
</defs>
</svg>
